/* XPM */
static char *result[] = {
/* columns rows colors chars-per-pixel */
"50 50 192 2 ",
"   c #865605",
".  c #966406",
"X  c #966B06",
"o  c #9A6B05",
"O  c #92640A",
"+  c #9D7404",
"@  c #9E7B0A",
"#  c #976E13",
"$  c #9E7C14",
"%  c #A06E04",
"&  c #A37505",
"*  c #A27B05",
"=  c #AE7C04",
"-  c #AA750B",
";  c #B47B05",
":  c #BA7F04",
">  c #966627",
",  c #957328",
"<  c #8F6537",
"1  c #A27227",
"2  c #B27F25",
"3  c #A87F36",
"4  c #A1774F",
"5  c #AE820B",
"6  c #AD8705",
"7  c #B48404",
"8  c #BE8305",
"9  c #B18E04",
"0  c #B59204",
"q  c #BB9404",
"w  c #BE9D04",
"e  c #B5940B",
"r  c #A88719",
"t  c #B9991B",
"y  c #A9882A",
"u  c #B98627",
"i  c #BB9A2B",
"p  c #B59425",
"a  c #A58332",
"s  c #A6873C",
"d  c #B29434",
"f  c #B89936",
"g  c #C68A04",
"h  c #C68A08",
"j  c #D08F07",
"k  c #C19F04",
"l  c #D49404",
"z  c #DB9904",
"x  c #E19F03",
"c  c #C4A303",
"v  c #CCAB03",
"b  c #C7A70C",
"n  c #D0AE02",
"m  c #D1B103",
"M  c #D8B602",
"N  c #DBBC03",
"B  c #D5B60C",
"V  c #D9BC0F",
"C  c #D5B80A",
"Z  c #C6A710",
"A  c #CAAB19",
"S  c #DBA013",
"D  c #D6B51E",
"F  c #E5A303",
"G  c #ECA704",
"H  c #ECA802",
"J  c #F2AD01",
"K  c #FDB501",
"L  c #FEBB00",
"P  c #F3B101",
"I  c #E1A617",
"U  c #C38C26",
"Y  c #C69225",
"T  c #CC9426",
"R  c #CF9E2C",
"E  c #CA972D",
"W  c #CE9D3C",
"Q  c #DDA722",
"!  c #D6B621",
"~  c #D8BB2F",
"^  c #DDBD26",
"/  c #C3A736",
"(  c #D1B538",
")  c #D7BB3F",
"_  c #E2C202",
"`  c #E6C804",
"'  c #ECCD03",
"]  c #E7C909",
"[  c #E0C30E",
"{  c #FFC401",
"}  c #FFCC02",
"|  c #EFD102",
" . c #EFD00D",
".. c #F2D402",
"X. c #FFD401",
"o. c #FEDC01",
"O. c #FFD00E",
"+. c #FCDB0F",
"@. c #F0D20B",
"#. c #E4C51B",
"$. c #FECA10",
"%. c #FDDC12",
"&. c #F2D518",
"*. c #FFD31A",
"=. c #FCDD1B",
"-. c #FFE001",
";. c #FFE10B",
":. c #FFE214",
">. c #FEE21D",
",. c #E6CB24",
"<. c #EED225",
"1. c #F8DE2F",
"2. c #F3D723",
"3. c #EBCF3E",
"4. c #F6DA32",
"5. c #FFE323",
"6. c #FFE32A",
"7. c #FDE33C",
"8. c #A58749",
"9. c #B58844",
"0. c #AD9141",
"q. c #BF9C47",
"w. c #B9934D",
"e. c #B98E52",
"r. c #BD9857",
"t. c #BEA246",
"y. c #A98363",
"u. c #BD9F66",
"i. c #BB9D6B",
"p. c #B8966A",
"a. c #B89A72",
"s. c #B79A7F",
"d. c #BA9878",
"f. c #CB9D41",
"g. c #C39D5F",
"h. c #C4A74D",
"j. c #D5AE48",
"k. c #D5B549",
"l. c #C9AD5F",
"z. c #C8A25D",
"x. c #D4BA5B",
"c. c #C69B6D",
"v. c #C39C77",
"b. c #C59E7A",
"n. c #C89D78",
"m. c #C89C76",
"M. c #CCAC6D",
"N. c #C6A868",
"B. c #DAAD6C",
"V. c #D2A569",
"C. c #C3A373",
"Z. c #C6A07E",
"A. c #CAA27E",
"S. c #D1A670",
"D. c #D4A77F",
"F. c #DBA97E",
"G. c #D0A97C",
"H. c #DBC351",
"J. c #E0C64E",
"K. c #F8DF47",
"L. c #F3D94A",
"P. c #F5DD42",
"I. c #E1C752",
"U. c #E2C950",
"Y. c #E3CB59",
"T. c #E8D05C",
"R. c #F4DC53",
"E. c #FFE542",
"W. c #F9E14B",
"Q. c #FAE358",
"!. c #DAC06D",
"~. c #BC9E83",
"^. c #CCA582",
"/. c #C7A980",
"(. c #CFA985",
"). c #CEAD8D",
"_. c #D4A780",
"`. c #D1A985",
"'. c #D9AC85",
"]. c #D1AB88",
"[. c #DAAF88",
"{. c #DEB186",
"}. c #DDB38C",
"|. c #D7B98F",
" X c #CFAE90",
".X c #D0B093",
"XX c #E2B68B",
"oX c #E5BB8E",
"OX c #E6BD91",
"+X c #E8BE91",
"@X c #E7C195",
"#X c #EAC193",
/* pixels */
" X X).). X X)..X).).).). X X). X X). X X X X X X X X X X X).).). X X X X X X X X X X X X X X X X X X",
"Z.A.A.Z.A.A.b.^.^.^.^.b.b.^.^.b.b.^.^.b.b.b.^.b.^.b.b.^.^.^.v.^.b.b.^.b.^.b.^.b.b.b.b.^.b.b.^.b.b.^.",
"`.(.(.`.(.(.(.(.(.(.(.(.(.(.(.`.`.^.`.^.`.`.`.`.`.`.`.(.^.^.^.^.(.`.(.`.`.^.^.^.^.^.^.A.b.^.^.^.^.(.",
"A.(.`.(.^.^.^.^.^.^.(.(.(.^.`.^.^.^.^.^.^.b.^.^.^.^.`.^.(.].^.^.(.(.`.(.`.(.^.^.^.^.b.^.^.^.^.^.`.(.",
"(.`.(.`.^.A.Z.b.^.(.(.(.^.^.^.^.b.b.v.b.b.v.v.b.^.^.`.(.].].(.(.`.`.(.`.].(.(.(.(.^.(.`.(.`.`.(.(.^.",
"(.^.(.^.`.`.`.`.`.(.(.(.(.`.^.(.`.(.`.`.].(.`.`.`.`.(.`.(.(.].].^.(.`.(.`.(.(.(.(.(.(.(.`.(.`.`.(.^.",
"A.^.^.(.`.(.(.`.^.(.(.(.(.`.^.(.(.`.(.`.(.(.(.`.`.`.(.(.(.(.^.^.^.b.(.`.`.`.(.`.^.^.^.(.(.(.(.(.(.^.",
"(.(.(.`.(.`.(.^.^.^.^.`.(.^.b.^.^.b.b.^.(.(.^.~.v.^.(.(.(.(.(.(.(.(.(.(.`.`.(.`.(.(.^.(.`.^.^.b.`.(.",
"(.(.(.(.(.`.(.`.(.`.(.(.).(.`.`.`.(.`.(.(.(.(.^.^.^.^.^.^.^.^.(.].(.(.].`.`.`.`.`.(.).(.(.(.(.(.`.(.",
"(.(.(.].(.`.`.(.`.(.`.(.(.(.`.(.(.`.(.`.(.^.^.^.n.^.n.^.v.n.^.(.`.].(.(.`.`.`.`.^.^.^.(.^.^.^.^.(.^.",
"v.v.(.].`.(.`.`.(.`.(.^.^.v.v.^.`.(.(.(.(.`.`.(.(.].(.(.(.`.^.^.b.(.(.(.^.b.b.b.A.Z.A.^.^.^.^.).(.(.",
"`.`.`.).(.`.(.`.`.(.`.`.`.^.`.`.(.`.`.(.`.(.`.].].^.(.(.`.(.`.^.^.^.`.`.(.(.].`.(.`.(.(.(.(.(.).(.(.",
"A.A.A._.^.A.^.^.b._._.^.b._._.^.A.A.D.A.^.C.M.M./.a.d.^.^.^.A.A.D.A.A.D.A.A.D.A.A.A.D.A.A.^.A.^.^.^.",
"_._._._._.`._._._._._._._._._._._._._._.N.H.2.&.<.,.,.^ U z.c.D.D.D.D._._._.D.D.D.D._._.D._._._._._.",
"XX}.}.}.XX}.}.}.}.}.}.[.[.[.XX[.}.}.`.u.L.%.N v ' -.o.} -...V d d.}.}.}.XX}.}.}.}.}.}.}.}.}.}.}.}.}.",
"D._._.`.'.}.[.}.}.}.}.'.D.A._.}.XX].8.R.-.0 . 8   ` -.o.-.o.o.o.m 8._.}.[.}.}.}.}.}.}.'.[.[._._.'.[.",
"}.}.}.}.}.}.}.}.}.}.}.}.}.}.}.}.b.N.1.;.-.q ; g & _ -.-.-.-.-.;.%.' ! r.A.D.`.}.}.}.}.}.}.}.}.}.}.}.",
"}.}.}.}.}.}.}.}.}.}.}.}.XX}.}.A.N.7.o.o.-.| k 0 v o.-.-.-...o.:.%.o.-.C q.(.}.}.}.}.}.}.}.}.}.}.}.OX",
"}.'.{.}.}.}.}.}.}.}.G.D.[.}.A.!.4.;.o.X.-.-.-.-.-.-.-.-.v 5 5 B -.-.-.-.] p }.}.{._.`.`.`.'.[.[.}.}.",
"}.}.}.}.}.}.}.}.}.}.}.}.}.(.x.>.-.-.-.-.-.o.X.-.-.-.-.-.Z # O v -.-.-.-.o.w }.}.}.}.}.}.}.'.'.}.}.}.",
"}.}.}.}.}.}.}.}.}.}.}.[.a.H.A & & v -.-.-.-.-.-.-.-.-.-.:.;.o..._ c 0 r r 0 s.}.}.}.}.}.}.}.}.}.}.}.",
"[.[.[.[.{.}.}.}.}.}.].i.H.:.c = & c -.-.-.-.-.-.-...] V Z t p i / ( ~ #. .o.< }.}.}.[.}.}.}.}.}.}.[.",
"`.`.D.G._.'.'.}.}.}.p.J.=.o.-.m M o.-.-.o.| N k e p d 0.t.k.W.7.5.;.-.o.X.-.> XX}.}.].[.}.}.}.'.`.'.",
"}.}.}.}.}.}.|.}.'.i.W.;.o.-.-.| ` m e $ , s h.T.Q.E.6.:.-.-.-.-.-.-.-.-.-.-.2 }.}.}.}.}.}.}.}.}.}.}.",
"}.}.}.}.XX[.{.XXC.L.;.` c + # y t.x.H.L.6.5.:.;.-.-.-.-.-.-.-...v * N -.-.-.u }.{.{.{.{.{.{.{.{.}.}.",
"F.'.'.F.F.F.F.y.0.y a f ( 7.7.>.+.X.o.-.M N o.-.-.-.-.-.-.-.-.c - H . ..-.-.U F.'.'.'.'.'.F.'.'.'.'.",
"+XoX+X+X+X+X+Xp.Y.<.=.:.:.;.-.-.o.o.-.v + - 0 -.-.-.-.-.-.-.-.q l K 7 ` -.-.Y OXoX+X+XoX+XoX+X+XoXoX",
"oX+X@X@X+X#X@X}.5.-.o.-.-.-.-.-.o.o.o.X G J = -.-.-.-.o.o.-.-.m o 8 o ..-.o.T oXoXXXXXXXXXoX+X+XoXoX",
"#X#X#X+XoXXX_.g.-.-.-.-.-.-.-.-.-.-.-.@ j l & -.-.-.-.-.o.-.-.-.o.| o.-.o.o.E +X+X+X+X+X#X#X#X#X+X+X",
"#X#X#X#X+X+X#Xw.` o.-.-.-.-.-.-.-.-.-.@.q w ` o.-.-.-.-.-.-.-.-.-.-.-.-.-.O.U +X+X+X+X+X#X+X#X#X+X+X",
"XXXXXX+X#X#X#X#X/.y o.-.-.-.X.-.-.;.:.;.-.-.-.o.-.-...| -.-.-.-.-.o.-.-.-.X.U +X+X+X+X+X+X+X+X+X+X+X",
"+XXX+X+X#X#X#X+XoXG...-.-.-.X.-.-.;.:.-.-.-.o.o.-.v 7 7 c o.-.-.o.o.-.-.o.} 1 +X+X+X+X#X+X+XoXXX+X+X",
"#X#X#X#X#X#X#XoXXX}.' -.-.-.-.;.:.-.-.-.-.-.o.X.-.+ z K X @.-.-.o.o.-.-.o.{ > @X@X@X#X#X#X#X+X#X@X+X",
"#X#X#X#X#X#X#X#X}.3 -.-.-.-.-.[ B | -.-.-.-.-.-.-.& l J X ..-.-.o.-.-.o.} K ~.+X#X#X#X#X#X#X#X#X@X+X",
"XXXX#X#X#X#X#Xz.D ' -.-.-.-.C - g + -.-.-.-.-.-.o._ 5 + N -.-.o.o.} { L L F XXXXXXXXXXXXXXXXoXOX+X+X",
"#X#X#X#X#X#X#Xj.-.-.-.-.;.:.$ G K 8 | o.-.-.-.-.-.-.o.o.X.} { L K K F h W e.@X@X+X#X#X#X#X#X#X+X+X+X",
"+X+XXX+XoX+XoXj.-.-.-.-.-.;.k 7 z & o.o.-.o.-.+.o.} { L L L J l ; 9.B.S.}.oX+X+X+XoXOXOX+XoX+XoXoXoX",
"D.D.D.D.D.D.F.h.-.-.;.+.-.-.-.w 9 M o.X.} } { K H l g E W 9.4 b.D._.D.D.D.D._._._.D.D._._.D.D.D._._.",
"'.{.[.[.'.}.'.9.{ $.O.*.O.} { L P H z S Y 2 > 4 [.'.'.}.].'.[.[.{.'.[.}.{.'.[.'.[.[.[.[.'.'.[.[.[.[.",
"'.'.{.}.}.}.}.A.g I Q R ; % 3 N.V.V.S.^.}.}.}.}.}.}.}.}.[.XX}.}.}.}.}.}.}.}.}.}.}.}.}.}.}.XX[.XX}.}.",
"[.[.[.].[.}.}.}.}.}.}.}.}.}.}.}.}.}.[.'.'.`.(.^._.(.'.[.[.[.}.}.}.}.'.`._.`.[.}.}.}.}.[.`.`._.'.[.[.",
"}.}.}.}.}.}.}.}.}.}.}.}.}.}.}.}.}.}.}.[.[.[.'.'.'.'.'.].[.[.}.}.}.}.}.[.[.[.}.}.}.}.}.}.}.}.}.}.XX}.",
"}.}.}.}.}.}.}.}.XX}.}.}.|.}.}.}.}.}.}.}.}.}.}.}.[.[._._.'.'.}.}.}.}.}.}.}.}.}.}.}.}.}.}.}.}.XX}.}.}.",
"}.[.[.}.}.}.}.}.}.}.`.'.}.}.}.}.}.}.}.[.[.}.}.}.'.'.'._.'.'.}.}.}.}.}.XX}.}.}.}.[.[.].[.[.`.'.[.[.XX",
"}.}.}.|.}.}.}.}.}.}.}.XX}.}.}.}.}.}.'.].'.'.}.}.}.].'.~._.'.[.}.}.`._.'.}.}.}.XX}.}.}.}.}.}.}.}.}.}.",
"}.}.}.}.}.}.}.}.XX}.}.}.XX[.'.[.[.'.'.'.'.[.}.}.}.}.}.}.}.}.}.}.}.}.}.}.}.}.}.}.}.}.}.}.}.}.OX}.}.}.",
"[.'.[.}.}.[.[.}.}.}.XX}.}.[.[.].].'.'.'.'.[.}.}.}.XX}.}.}.'.'.'.}.}.}.}.}.}.}.}.}.}.[.[.}.}.}.}.'.'.",
"[.].[.[.}.[.}.}.}.}.]._.[.}.}.XX}.}.}.}.}.}.}.}.}.}.}.}.'.'.[.{.}.}.XX}.}.}.XX}.}.}.[.`.}.}.}.[.'.'.",
"XX}.}.}.}.{.}.}.{.{.}.{.{.}.{.{.}.}.{.XX}.}.}.}.{.XX}.{.}.XX{.XX}.}.XX[.XXXX[.XX}.}.}.{.}.}.{.{.}.}.",
"'.'._.'.'.'.'.'.'.'.'.'.'.'.'.'.'.'.'.'.'.'.'.'.'._.'.'.'.'.'._.'.'.'.'.'.'.'.'.'._.'.'.'.'.'.'.'.'."
};
