/* XPM */
static char *result[] = {
/* columns rows colors chars-per-pixel */
"50 50 27 1 ",
"  c #C39C77",
". c #C89C76",
"X c #C59E7A",
"o c #C6A07E",
"O c #CAA27E",
"+ c #D4A77F",
"@ c #D5A87F",
"# c #DBA97E",
"$ c #CCA582",
"% c #CFA885",
"& c #CFAE8F",
"* c #D4A780",
"= c #D2A985",
"- c #D9AD85",
"; c #D1AB88",
": c #D9AF88",
"> c #DEB186",
", c #DDB38C",
"< c #CFAE90",
"1 c #D0B093",
"2 c #E0B287",
"3 c #E2B68A",
"4 c #E6BB8E",
"5 c #E6BD91",
"6 c #E8BE91",
"7 c #E7C195",
"8 c #EAC193",
/* pixels */
"<<&&&&&1&&&<<<<<<<<<1<<<<<<<<&&&<<<<<<<<<<<<<<<<<<",
"oOoOOoOO$$XXX$X$X$XXXXOXX$$X$$XXXX$X$X$XXXX$XX$X$$",
"=%%%=%%%%%;%$%%%==;==%%====%$$$$==%%==$$$$$$X$$$$%",
"O%=%$$$O$$=%%%$$$$O$$X$$$%%=;;$$==;%=$$$$X$X$$$$$$",
"=;%=$$o $%%%%$$$XX  X XXX=%%%%%%$%%%%%%%%%%%%$==%$",
"%$$%=%===%%%===%=;%%;%%%%=;%%%;;$$%%%%%%%%%%%%$=%$",
"$o$$%=%%=%;%%$%%=;=%;;%%%;%%%%$$$$$=%;==$$$%%%=$=$",
"%%%%=%=$$X$%%$XXOXX$%$$XX$$%%%%;%======$$%%%%%$$$%",
"%;;%=%==%=%%&%%%%%==%%%$*$$$$$*%;;%%;*==%%;%$===%%",
"%%=;%%%%=%%%%%=%%%$=%$$$$X$X X$%%%%%%%=$$$$$$$$$=%",
" o%%%==%%%=%$  $%;==%%%%%%%%%=$$$$==$$X$$X$$$$==%%",
"$;%%=%%===%%=%%%==;;%%%*%%%%%==$$$=*%%%%%$%%;%;*=%",
"OOO$$OOOOOOO+OO+X*$O$$$O$$$$X*$X$O+O+OO$$$OO$$OO$X",
"@-++-*****************************+*+*************",
",,,,,,,,3,,,2,:,2,2,3,,,:,,,3:3,,,,,>,,,,,2,,,,,3,",
"++*--,,,,,,-*O*3,,,,:,:,:,,,3,,3,::,:,,,,,2:;--;:>",
",,,,,,,,,,,,3,,,:,,::;-=-*$O**>,,,:;*=;:,,,,,,:,,,",
",,,,,3,3,,,,,,3,3,,,,,,,3:,3,,,,,,3,3:,,3,,,,,,,,3",
",,:,,,,,,:*=;,,3,,,,,,31==*;,,,33,,,,,,,:-%;--:::,",
",:<,3,,,,3,,,,,,,,,,,3,,,3:3,3,,,;-::3,,:,3,:::,,,",
",,,,,,3,,3,,3:::,,,,,,,,,,,,,,,,,,:,,,,,3,33,,,,,,",
"--::::,,,3,,,:;-:;:;::5,,,3,,::,,,,,,,,,,,::,,,,,:",
";;**-;:,,,,1-,,,,,3,,,,,,,,,:;;:,,,,,,,3,,;;,,,:-;",
",,3,,,,,3,::,,3,,,,,,,,,,53,,,,3,,,3,,,3,,,,,,,,,,",
",,2,,>,,223:2,2222222222,,22222,,:222:222:32:2,2,,",
"*->-#####---#---*#-----2-*---*-*---##-##-#---####-",
"66666644666665666666466646666666556646644464466444",
"44666666868866666686666666666333678866644442424444",
"888644--346865622--2223466886688888888886886888866",
"88866666886665524666886868886688888888886688888886",
"43468868668886264368686688888666236888884468886666",
"44688886665664344643666346688666466888666668654466",
"68888885434666532246663344688888888888888888886888",
"68888887668888668868662-+++---48888888888888888877",
"36888876688644568888866668888888888854434333333467",
"6888886678886886888688688888785*268888878888888866",
"66655454554555444646644544645555444544555444464454",
"+#**+*********+*+****+**@@*+++**+@@@@****+++@@@@**",
":--:---::::::--:::::::::-,-:-:,:-->--,--,:-,:--:::",
"--:,3,3,,,3;*+*,,,,,,,,,,,,,,,,,,,,,,,,,,,,,,,,,,,",
",&:::,,,,,,,,,,,,,::-;=*$=--::,3,,:*@=,,,,,:;-=-::",
",,,,,,,,,,,,,,,,,,,::::;----::,,,,,>:>,,,,,,,,,,,,",
",,,,,,,,,,,,,,,,,,,,3,,,::*;=-,,,,,,,,,,,:,,,,,,3,",
",-:,,,,,,,--1,,,3,:-::,,*--;--:,,,,,,,,,::-;:;->:,",
",,,,,,,,,,,,,,,,3::-;;,,,:=.*-:,:=*:,,,,,,,,,,,,,,",
",,,,,,,,,,,,,,:--;;--,,,3,,,,,,,,,,,,,,,,,,,,,,,33",
"::::::,,3,,,,,:--::--:,,,,,,:::,,,,,,,,,,,>:,,,,::",
":::::,,,,,=*-,,,,,,,,,,3,,3,---2,,,,,,,,,,=:,,,,--",
",,,,,,,,,,,,,,23,,2,,2:32,3,,,32,,,,,,,,,,,,,,2,,2",
"---@-##---#-#--*--------*----*-*->-#--#---#-#---*-"
};
