/* XPM */
static char *result[] = {
/* columns rows colors chars-per-pixel */
"50 50 128 2 ",
"   c #000000",
".  c #080708",
"X  c #090908",
"o  c #110F0D",
"O  c #131313",
"+  c #181717",
"@  c #1B1A1B",
"#  c #241E19",
"$  c #26231F",
"%  c #2A251E",
"&  c #252525",
"*  c #2E2C2D",
"=  c #31312F",
"-  c #383736",
";  c #383837",
":  c #3D3C3B",
">  c #413F3F",
",  c #43403C",
"<  c #4F4438",
"1  c #52483C",
"2  c #5B4A3B",
"3  c #464443",
"4  c #494747",
"5  c #4C4842",
"6  c #4E4B4C",
"7  c #514F4E",
"8  c #5C5042",
"9  c #545353",
"0  c #595555",
"q  c #5C5A5B",
"w  c #6B5C4C",
"e  c #605D5E",
"r  c #7D654F",
"t  c #6A625C",
"y  c #776653",
"u  c #7D6E5E",
"i  c #635F62",
"p  c #646364",
"a  c #6C666B",
"s  c #6D6B6C",
"d  c #756F73",
"f  c #757273",
"g  c #7A7677",
"h  c #7C7A7B",
"j  c #8E7A66",
"k  c #8A7A6B",
"l  c #957E64",
"z  c #817C7D",
"x  c #96816F",
"c  c #938475",
"v  c #9B8673",
"b  c #9F8872",
"n  c #9A8A7E",
"m  c #A38C74",
"M  c #AC8D71",
"N  c #A08E7F",
"B  c #AF9175",
"V  c #B59472",
"C  c #B29579",
"Z  c #B7987D",
"A  c #BF9F7C",
"S  c #BFA07D",
"D  c #C39C77",
"F  c #C69F7C",
"G  c #CB9E79",
"H  c #C4A37F",
"J  c #CBA27E",
"K  c #D4A77F",
"L  c #D6A87F",
"P  c #847D82",
"I  c #858281",
"U  c #888385",
"Y  c #8A8989",
"T  c #918D8D",
"R  c #919090",
"E  c #9A9596",
"W  c #9D9897",
"Q  c #999798",
"!  c #9C9A9A",
"~  c #AF9884",
"^  c #B29C86",
"/  c #B49F8B",
"(  c #A09C9C",
")  c #BFA186",
"_  c #AFA191",
"`  c #B3A090",
"'  c #BBA693",
"]  c #BEAA98",
"[  c #ACABAC",
"{  c #B9ACA0",
"}  c #B0ACAD",
"|  c #B2B2B2",
" . c #BBB7B6",
".. c #BFBCBD",
"X. c #C5A381",
"o. c #CCA582",
"O. c #CFA885",
"+. c #C3A58A",
"@. c #C4A88E",
"#. c #CEAD8D",
"$. c #D4A780",
"%. c #D1A985",
"&. c #DAAD85",
"*. c #D1AB88",
"=. c #DAAF88",
"-. c #DEB186",
";. c #D4B089",
":. c #DDB38C",
">. c #C7AA90",
",. c #CFAE90",
"<. c #CEB195",
"1. c #C4B29D",
"2. c #C8B29D",
"3. c #D1B193",
"4. c #D9B893",
"5. c #DDBE9B",
"6. c #E0B287",
"7. c #E1B58A",
"8. c #E6BB8E",
"9. c #E6BD91",
"0. c #E8BE91",
"q. c #C5B8AE",
"w. c #C4BEB7",
"e. c #E7C195",
"r. c #EAC193",
"t. c #C5C4C4",
"y. c #C9C6C6",
"u. c #CECDCD",
/* pixels */
",.,.,.,.,.,.#.<.,.*.,.#.,.,.,.,.,.,.,.,.,.,.,.,.,.,.,.,.,.,.,.,.,.,.,.,.,.,.,.,.,.,.,.,.,.,.,.#.3.,.",
"J J J J J J J o.o.X.o.o.o.F F o.G X.G o.F o.o.G F o.G o.o.o.o.X.J J J J H J J J J F F o.J F J J o.o.",
"O.%.%.%.O.O.O.O.*.*.%.%.%.%.%.%.%.$.*.%.O.O.O.o.%.$.O.O.o.o.F o.O.%.O.%.%.%.o.o.o.o.o.J J o.F o.o.o.",
"o.o.O.O.o.o.J o.X.o.o.%.%.o.o.o.o.o.X.o.o.G o.o.o.o.*.O.*.O.%.o.O.O.%.O.%.o.o.o.o.F F o.o.o.o.O.O.O.",
"%.%.O.O.O.o.o.J o.*.o.*.%.o.o.o.o.o.X.o.X.o.o.o.o.%.O.%.O.O.*.O.O.O.%.O.%.O.%.O.O.O.%.O.%.O.O.O.*.%.",
"O.O.J O.O.%.O.O.%.*.*.*.O.%.%.%.%.%.%.%.O.%.O.$.O.O.%.O.O.*.*.O.o.O.O.%.O.%.O.O.O.O.O.*.O.%.%.%.O.X.",
"o.o.O.O.%.O.%.O.%.o.*.*.%.X.o.%.o.*.%.o.O.O.o.o.o.o.O.O.%.O.O.o.o.o.O.O.%.O.O.%.o.o.o.O.O.O.o.o.O.o.",
"O.O.O.%.O.%.O.o.o.F o.o.%.o.F X.X.G F F O.%.X.X.G o.O.%.O.O.O.*.O.O.%.%.O.%.O.%.O.O.#.O.%.O.o.F O.%.",
"O.#.%.O.%.O.%.O.O.%.O.O.*.O.%.O.%.O.O.%.O.*.o.o.o.o.o.o.o.G o.*.*.*.%.O.%.O.%.O.O.O.O.O.O.O.O.%.%.%.",
"O.O.O.%.O.%.O.%.%.O.%.O.O.O.O.%.O.O.%.O.O.O.O.o.o.o.o.o.o.o.o.%.O.*.O.%.O.O.O.O.o.o.o.o.o.J o.o.o.O.",
"D F O.#.%.O.O.%.O.%.O.O.X.F D o.%.O.O.%.O.%.O.*.O.O.O.O.%.%.%.X.F O.%.O.o.F F F F H o.o.o.o.o.O.O.%.",
"%.O.%.*.O.%.O.O.%.O.O.%.%.%.%.%.O.%.%.O.%.O.O.O.*.O.O.%.o.%.%.%.o.o.%.%.%.O.%.%.%.%.O.O.O.O.O.&.%.O.",
"J J J o.o.J o.J J J o.J J K F o.o.o.G o.o.o.G $.o.o.o.o.o.G o.J o.J K J o.G K J J J J K J o.J J J J ",
"L L $.$.&.$.$.$.$.$.$.$.K $.$.$.$.$.$.$.$.$.$.$.$.$.$.$.$.$.$.$.$.$.$.$.$.$.$.$.$.$.$.$.L %.$.$.$.$.",
":.:.:.:.:.:.:.:.7.:.:.:.=.:.:.:.:.:.6.6.:.:.:.=.6.:.6.:.:.6.6.6.:.:.6.:.:.:.:.:.:.:.:.:.:.:.:.:.7.:.",
"$.&.&.&.&.:.:.:.:.:.7.=.$.&.&.:.:.6.=.,.~ 2.<.<.>.@.+.+.^ ` 3.7.:.=.&.=.=.:.:.:.:.7.=.=.=.$.=.$.&.=.",
":.:.:.:.:.:.:.:.:.:.:.:.:.7.:.O.>.@.q...h | y. .[ E T z z U ( k v ^ X.$.&.$.%.:.7.:.7.:.:.:.:.:.:.:.",
":.:.:.:.:.:.7.:.:.7.:.:.,.) T U E } t.y.h | u...} ! Y z g P T e q 0 e v ^ +.4.:.:.:.:.:.:.:.:.:.:.9.",
":.-.=.:.:.:.:.:.:.=.J n I ( d P E } t.y.h | u...} Q Y z g U T e q 9 7 7 h d ] :.=.&.$.%.$.=.&.=.=.:.",
":.=.:.:.:.:.:.:.:.:.v g z ! d P E } ..| h | I s e 9 7 7 d P U e 0 9 9 6 f f ! m :.:.:.:.=.=.=.:.:.:.",
":.:.:.:.:.:.:.:.:.k 3 f z ! a p 6 * o & h [ O         X 0 U e . + = , 4 f f Q : b =.:.:.:.:.:.:.:.:.",
"%.:.=.=.=.:.:.:.B 3 3 d h Y @ X       & h [ O         . q U e       . o p f Q : 5 C :.:.:.:.:.:.:.:.",
"%.$.$.$.&.%.=.:.u : : p z h X         & h [ O         X 0 U e           9 f R ; - j %.$.:.:.:.=.$.&.",
"4.:.:.:.:.:.:.:.u * . q h h X         & h [ O         X q Y q           9 f Y X = j :.:.:.:.:.:.:.:.",
":.:.-.-.:.6.6.=.M O   0 h h X         & h [ O         X q U q           9 f Y   % M 6.&.6.6.-.6.=.:.",
"&.-.-.&.L -.L -.L 2   q z h X         & h [ O         . 0 U e           9 f Y   j $.6.6.&.&.&.6.&.&.",
"8.0.0.8.0.0.0.0.0.:.< q z h X         & h [ O         X q U e           9 f Y w $.7.0.0.8.8.9.9.9.8.",
"8.0.r.r.0.r.r.0.r.r.9.c z h X         & h [ O         X q U e           q f _ 8.8.7.7.7.8.7.8.0.8.8.",
"r.r.r.0.8.6.L -.7.8.0.8.r.' w # X     & h [ O         X q U q     o & y / r.0.r.0.0.0.r.r.r.r.r.0.0.",
"r.r.r.0.0.0.r.r.r.r.r.r.r.9.9.J V x 1 , h [ O         X q I f 8 l F =.e.r.r.r.r.0.0.r.r.r.0.r.r.0.0.",
"8.6.8.0.r.r.r.r.r.r.r.r.r.8.6.8.8.7.r.4.N 1.#.X.S S H O.^ ` 5.8.7.7.0.r.r.r.0.r.8.8.0.0.0.0.0.0.0.9.",
"8.8.0.r.r.r.0.0.8.8.8.0.r.7.7.8.8.8.8.7.r.8.8.7.7.8.e.r.r.r.e.8.8.0.0.r.r.r.0.0.0.0.0.r.0.0.8.9.0.0.",
"r.r.r.r.r.r.0.0.7.7.8.9.0.0.8.6.8.6.7.0.0.0.8.7.8.8.9.0.r.r.r.r.r.r.r.r.r.r.r.r.r.r.r.r.r.r.0.e.e.0.",
"r.r.r.r.r.r.r.r.e.0.r.r.r.r.r.0.r.r.0.0.0.0.6.-.$.K $.&.&.=.9.0.r.r.r.r.0.0.r.r.r.r.r.r.r.r.r.r.e.0.",
"6.7.0.r.r.r.r.e.e.r.r.0.7.7.7.0.r.r.0.0.r.0.0.0.0.r.0.0.r.r.0.9.r.r.r.r.9.8.7.:.7.6.6.-.6.6.7.7.0.0.",
"r.r.r.r.r.r.r.0.r.e.r.r.0.r.r.0.r.r.r.0.r.r.r.r.r.r.r.r.e.0.0.6.7.0.r.r.r.e.0.0.0.r.0.r.r.r.r.r.0.0.",
"0.8.8.8.9.8.8.8.9.9.9.9.9.8.9.8.9.8.8.9.8.8.8.8.0.9.9.9.9.9.9.9.8.8.9.9.9.8.9.9.9.8.9.8.8.8.0.8.8.8.",
"L L L L L L $.$.$.$.$.$.L L $.L $.$.$.$.$.$.$.$.$.$.$.$.$.$.$.$.L L $.$.$.L $.$.$.K L L $.L L L $.$.",
"&.&.=.&.=.&.=.=.=.=.=.=.&.&.&.=.=.=.=.=.=.=.=.=.=.&.=.=.&.=.=.=.&.=.=.&.&.=.=.&.=.=.=.=.=.&.=.&.=.=.",
"=.=.&.:.:.:.7.:.:.=.:.=.$.$.$.7.:.:.:.:.7.:.:.6.7.7.7.:.=.7.:.4.7.:.:.7.:.:.7.:.:.:.:.:.:.:.:.:.:.:.",
"=.=.*.=.=.:.:.:.:.:.:.:.:.:.:.:.:.:.=.&.=.&.%.o.o.$.*.&.=.:.:.:.:.:.-.$.$.%.=.:.:.4.:.&.%.$.%.=.=.=.",
":.:.:.:.:.:.:.7.:.:.:.:.4.:.:.:.:.:.:.=.=.=.=.&.=.&.&.&.&.=.=.:.:.:.:.=.=.:.:.:.:.:.4.:.:.:.:.:.7.:.",
":.:.:.:.:.:.:.:.:.:.:.:.:.:.:.7.:.:.:.:.:.:.:.=.=.=.*.$.&.&.:.:.:.:.:.:.:.:.:.:.=.=.:.:.:.:.:.7.:.:.",
":.%.=.:.:.:.:.:.:.=.%.$.=.:.:.:.:.:.=.=.=.=.:.4.$.&.=.&.&.=.:.:.:.:.:.:.:.:.7.:.=.=.$.&.%.%.$.&.=.:.",
":.:.:.:.:.:.:.:.:.:.:.:.:.:.:.:.:.=.=.=.&.=.=.9.:.=.=.X.$.=.:.:.=.o.J $.:.:.:.:.:.:.:.:.:.:.:.:.:.:.",
":.:.:.:.:.:.:.:.7.:.:.:.:.=.$.%.o.$.$.$.o.*.:.:.:.:.:.:.:.:.:.:.:.:.:.7.:.:.:.:.:.:.:.:.:.:.:.9.:.:.",
"=.=.:.;.;.:.:.:.:.:.:.:.:.=.=.=.=.=.&.=.&.=.:.:.:.:.:.6.=.=.=.=.:.:.:.:.:.:.:.:.7.:.=.=.:.:.:.:.&.=.",
"=.=.=.=.=.:.:.:.:.:.%.$.=.:.:.:.:.:.:.:.:.:.:.:.:.:.:.:.=.&.&.:.:.:.:.7.:.:.:.:.:.:.=.%.:.:.:.=.&.&.",
":.:.7.7.:.7.:.:.6.6.7.:.:.:.6.:.7.:.:.:.:.:.:.:.6.6.6.6.6.:.6.:.7.:.7.7.:.:.:.:.6.7.:.=.7.:.6.:.:.:.",
"&.$.&.$.&.$.&.&.&.$.&.&.$.&.$.&.&.&.$.&.&.&.&.&.&.&.&.&.&.&.$.&.&.=.&.$.&.&.&.&.$.&.&.&.&.&.&.$.&.&."
};
