/* XPM */
static char *result[] = {
/* columns rows colors chars-per-pixel */
"50 50 124 2 ",
"   c #000000",
".  c #080708",
"X  c #0C0B0B",
"o  c #110F0D",
"O  c #131212",
"+  c #181717",
"@  c #241E19",
"#  c #26231F",
"$  c #29251F",
"%  c #222222",
"&  c #2E2923",
"*  c #292728",
"=  c #2E2C2D",
"-  c #31312F",
";  c #343333",
":  c #383736",
">  c #383837",
",  c #3D3C3B",
"<  c #483E33",
"1  c #413F3F",
"2  c #4F4438",
"3  c #52483C",
"4  c #5B4A3B",
"5  c #413F40",
"6  c #454344",
"7  c #4A4747",
"8  c #4C4842",
"9  c #494748",
"0  c #4D4A4B",
"q  c #514F4E",
"w  c #5C5042",
"e  c #58534F",
"r  c #555252",
"t  c #595657",
"y  c #5D595A",
"u  c #6A5A4A",
"i  c #605955",
"p  c #615C5C",
"a  c #7D654F",
"s  c #6A625C",
"d  c #776653",
"f  c #7D6E5E",
"g  c #635F62",
"h  c #656163",
"j  c #696366",
"k  c #6B696A",
"l  c #716B6C",
"z  c #7D726D",
"x  c #736C70",
"c  c #7F7C7C",
"v  c #827265",
"b  c #8E7A66",
"n  c #8A796B",
"m  c #957E64",
"M  c #867F7C",
"N  c #96816F",
"B  c #9B8673",
"V  c #9F8872",
"C  c #9F8B7D",
"Z  c #A58B6D",
"A  c #A38C74",
"S  c #AC8D71",
"D  c #AF9175",
"F  c #B49574",
"G  c #B29579",
"H  c #B7987D",
"J  c #BE9E7D",
"K  c #BFA07D",
"L  c #C39C77",
"P  c #C69F7C",
"I  c #CB9E79",
"U  c #C4A37F",
"Y  c #CBA27E",
"T  c #D4A77F",
"R  c #D6A87F",
"E  c #847D82",
"W  c #8D8383",
"Q  c #8E8A8B",
"!  c #918B8A",
"~  c #949393",
"^  c #989397",
"/  c #9D9897",
"(  c #9D999A",
")  c #BC9E82",
"_  c #BEAA98",
"`  c #ADABAC",
"'  c #B0ACAD",
"]  c #BBB7B6",
"[  c #BFBCBD",
"{  c #C5A481",
"}  c #CCA582",
"|  c #CFA885",
" . c #C4A58A",
".. c #C4A88E",
"X. c #CEAD8D",
"o. c #D4A780",
"O. c #D1A985",
"+. c #DAAD85",
"@. c #D1AB88",
"#. c #DAAF88",
"$. c #DEB186",
"%. c #D5B18B",
"&. c #DDB38C",
"*. c #C7AA90",
"=. c #CFAE90",
"-. c #D1B193",
";. c #E0B287",
":. c #E1B58A",
">. c #E6BB8E",
",. c #E6BC91",
"<. c #E8BE91",
"1. c #C5B8AE",
"2. c #C0BFBF",
"3. c #E7C195",
"4. c #EAC193",
"5. c #C5C4C4",
"6. c #CEC8C6",
"7. c #D4CCC3",
"8. c #D2D0D1",
"9. c #DCD6D1",
"0. c #DAD9D9",
"q. c #E4DDD7",
"w. c #E1E0E1",
"e. c #ECECEC",
/* pixels */
"=.=.=.=.=.=.=.=.X.X.=.X.X.=.X.X.=.X.X.=.X.X.=.=.=.=.X.=.=.X.=.=.=.=.=.=.=.=.=.=.=.=.=.=.X.X.=.X.=.=.",
"Y Y Y Y Y Y { { } { } } { } } } } { } } } } } I { } } } } } { } P P } I P } P { I } I { } I } { } } ",
"| O.O.O.O.| O.O.@.| O.| o.| | | } o.} o.} | | | o.} | O.} } } } | O.| | O.| | o.{ } } } { } } } } | ",
"} } | | } o.} { } } | O.} o.} } } } { } } I } } } } | | O.| } } | | O.O.O.O.{ } } I } P I } } } } | ",
"O.O.| O.} } { Y | | | | O.} | } } } } } } } } } } } | O.O.| O.| O.O.O.| O.| O.| @.@.| O.| O.O.O.| | ",
"| | } | O.O.O.O.| | @.| O.| O.O.| | } } } } | | O.O.| | | O.@.@.} | | O.| O.| | | | | @.O.| O.O.} } ",
"} } } | | O.O.O.| | @.@.| { { O.O.o.} } O.| } o.} } O.O.O.O.}  .{ } | | O.| O.| { } } | | O.} } | o.",
"| | | O.| O.| } } I { | @.I I { } { { } } | } ) } } } | O.O.O.O.@.| O.O.| O.@.| | | | | O.| } { | | ",
"| | | @.| O.| O.| O.| | @.| O.O.| O.O.| O.| } } } } } } } { } | X.@.O.O.| O.| | O.o.@.@.O.O.| O.| | ",
"| | @.| | O.O.| O.| O.| | | | | O.| | O.| O.} O.} } } } } } o.| | | @.| | | | } } } {  .{ } P } } | ",
"L P | | O.| O.O.| O.| | { P L O.| O.O.| O.| | O.} O.| O.| | } } I | o.@.{ P I I I { I } | } | | | | ",
"| @.| @.| O.| O.O.| O.| O.| O.@.O.| | O.| O.| | @.| O.| | | | } } | @.o.O.O.@.O.| O.O.| | O.@.o.O.| ",
"} Y } o.} } } } } I } Y T I } I } } } } o.} } I o.} } o.} } I } } Y Y Y } I } | I } I o.| | { Y o.} ",
"o.o.o.o.o.o.o.o.o.o.o.o.o.o.o.o.o.o.o.o.o.o.o.o.o.o.o.o.o.o.o.o.o.o.o.o.o.o.o.o.o.o.o.o.o.o.o.o.o.o.",
";.&.&.#.#.&.&.&.&.&.&.&.&.:.&.&.&.&.;.#.&.&.&.&.#.#.&.&.&.&.;.;.&.&.&.:.&.;.&.&.&.:.#.:.&.&.#.&.#.&.",
"O.+.+.+.#.&.&.&.&.:.&.#.o.O.O.:.&.&.#.#.-.-.-.=.*... . . .O.#.&.&.#.#.#.#.#.&.&.&.&.#.#.o.#.#.#.+.#.",
"&.&.&.&.&.&.&.&.:.&.;.&.&.&.#.X..._ 1.6.q.9.6.] ` / ! N x x z n B H { O.O.O.#.#.&.&.&.&.#.&.&.#.&.&.",
"&.:.&.&.&.&.:.&.&.&.&.&.#.P ! W ^ ' 6.0.e.w.8.[ ' ( Q c x k g s y r s N J &.&.:.&.&.&.&.&.:.:.&.&.,.",
"&.#.#.:.&.&.&.&.&.#.Y D n l x E ^ ` 5.0.e.w.8.[ ` ( Q c k j g y t t r q i v ) &.#.O.O.O.@.#.#.#.#.&.",
"&.#.%.&.&.&.:.&.&.&.B p t j k E ^ ` [ [ ` ~ c k y t 0 0 0 0 y y y r r 0 9 6 r A ;.:.&.;.#.#.#.#.&.&.",
"&.&.&.&.&.&.&.&.%.b 6 0 t g j g 5 ; X                         . + = 1 9 9 9 5 , A #.:.&.&.:.&.:.&.&.",
"#.#.#.#.+.&.&.&.G 6 6 9 6 * O .   .                                 . o % ; , , 7 G +.%.&.&.:.%.&.&.",
"O.O.o.o.O.+.#.&.f , , % .                                                 . % , : b O.+.&.&.&.#.| +.",
":.&.&.&.&.&.&.&.f ; .                                                         X - b &.&.&.&.&.:.&.&.",
"&.&.#.;.#.$.;.;.S O                                                             $ D &.;.;.;.;.;.#.&.",
"+.#.$.+.$.+.+.+.R 4                                                             v o.+.;.+.+.+.;.+.+.",
"<.>.<.<.<.<.<.<.<.&.2 .                                                     . u +.:.>.>.>.>.<.<.>.>.",
">.<.<.3.<.<.<.<.4.<.,.Z <                                               X < F :.:.:.>.;.>.;.<.<.>.>.",
"4.4.4.<.>.;.$.+.:.>.<.4.,.J u @ X                                 o & d +.4.4.4.<.4.<.4.<.4.4.4.<.<.",
"4.4.4.<.<.<.4.<.4.4.4.4.4.,.,.Y F m 3 $ X .             . X & w m P #.<.<.4.4.<.<.<.4.4.<.<.4.4.<.<.",
":.:.>.<.4.4.4.4.4.4.4.4.4.,.;.,.:.:.4.4.&.%.| U K K U | %.,.,.:.;.:.<.4.<.<.<.<.<.<.<.<.<.<.<.<.<.<.",
">.>.<.4.4.4.<.<.>.>.>.<.4.:.:.>.<.>.>.:.4.4.>.:.:.>.4.4.4.4.4.>.<.<.<.4.4.4.<.<.<.<.<.4.<.<.>.>.<.<.",
"4.4.4.4.4.4.<.<.:.:.>.<.<.<.>.;.>.&.:.<.<.<.>.:.:.>.<.<.<.4.4.4.4.4.4.4.4.4.4.4.4.4.4.4.4.4.<.4.3.<.",
"4.4.4.4.4.4.4.4.<.<.4.4.<.4.4.4.4.4.<.<.<.<.:.;.o.R o.+.+.#.<.<.4.4.4.4.<.<.4.4.4.4.4.4.4.4.<.4.3.<.",
";.:.<.4.4.4.4.3.3.4.4.<.:.;.:.<.4.4.<.<.<.<.<.<.4.4.<.<.3.3.<.<.4.4.4.<.<.,.:.&.;.;.#.;.&.;.>.:.<.<.",
"4.4.4.4.4.4.4.<.3.4.4.4.<.4.4.<.4.<.<.<.4.4.4.4.4.4.4.<.<.<.<.;.>.<.4.4.4.<.<.<.4.4.4.4.<.4.4.<.<.<.",
"<.>.>.,.>.>.,.>.,.,.>.,.<.<.,.>.>.,.>.,.,.>.,.,.<.<.,.,.,.,.,.,.<.>.,.<.,.>.,.,.,.>.>.,.<.>.,.>.>.>.",
"R R R R R o.o.R o.o.R o.o.o.R R o.o.o.o.o.o.o.o.o.o.o.o.o.o.O.o.R o.o.o.T o.o.o.o.o.R o.R R R R o.o.",
"+.+.#.+.+.#.#.#.#.#.#.#.+.#.#.+.#.#.#.#.#.#.#.#.+.#.#.#.#.#.#.#.+.+.+.#.+.#.#.#.#.#.+.#.#.+.#.+.#.#.",
"+.+.&.&.&.:.&.&.:.%.&.@.o.o.o.&.&.&.&.&.&.&.&.#.:.:.&.:.#.&.:.&.&.&.:.&.:.&.#.:.&.&.&.&.&.&.&.&.&.&.",
"#.#.@.#.%.&.&.&.&.&.&.&.&.&.&.&.&.&.#.#.+.O.o.o.o.| +.#.#.#.&.&.&.#.#.o.O.@.#.&.&.&.&.+.O.O.+.O.#.#.",
"&.&.&.&.&.&.&.:.&.&.&.&.&.&.&.&.&.&.&.&.#.#.#.#.+.#.+.@.#.#.&.&.&.&.&.#.#.#.&.&.&.&.&.&.&.&.&.:.&.:.",
"&.&.:.&.&.&.&.&.&.&.&.&.&.&.&.&.&.&.&.&.&.&.&.&.+.#.o.o.+.+.&.&.&.&.&.&.:.:.&.&.%.%.&.&.&.&.&.:.&.&.",
"#.@.#.-.&.:.&.&.:.#.o.o.-.&.&.&.&.&.#.#.#.#.&.&.o.o.#.+.#.#.&.&.&.&.&.&.&.&.&.&.&.+.O.+.O.o.+.@.#.&.",
":.&.&.:.&.&.&.&.&.:.&.&.:.:.&.:.#.#.#.#.+.#.&.&.&.&.@.} o.#.#.&.&.O.Y o.&.&.&.&.&.:.&.&.&.&.&.:.&.:.",
":.&.&.&.&.:.&.:.&.&.&.&.&.@.o.@.o.| o.o.} #.&.&.&.&.&.&.&.&.&.&.&.&.:.:.&.:.&.&.&.&.&.:.&.&.&.&.&.&.",
"#.#.%.#.&.#.&.&.&.&.:.&.&.#.#.#.#.+.+.#.+.#.&.&.&.&.&.&.#.#.#.#.&.:.&.&.&.&.&.&.&.&.#.#.&.&.&.&.+.#.",
"#.#.#.#.%.#.%.&.&.:.O.o.#.&.&.&.&.&.&.&.&.&.&.&.&.&.&.&.#.+.#.;.&.&.&.&.&.&.&.&.:.#.@.#.&.:.&.%.+.+.",
"&.&.;.;.&.&.&.&.;.&.&.;.&.&.;.&.&.&.:.:.&.:.&.&.;.;.&.;.&.&.;.;.&.&.&.;.&.&.#.&.;.&.&.;.&.&.;.&.&.&.",
"o.#.+.+.+.o.+.+.o.+.+.+.+.+.+.o.+.+.o.+.+.o.+.+.+.+.+.+.+.+.+.o.+.#.+.+.+.#.+.+.o.+.+.+.+.+.o.+.+.+."
};
