/* XPM */
static char *result[] = {
/* columns rows colors chars-per-pixel */
"50 50 181 2 ",
"   c #111111",
".  c gray12",
"X  c #211C18",
"o  c #232322",
"O  c #2C2926",
"+  c #3A2F26",
"@  c #333332",
"#  c gray22",
"$  c #403429",
"%  c #564A3F",
"&  c #5A493A",
"*  c #4D4947",
"=  c #4B4B4B",
"-  c #5A4C4C",
";  c #5E554C",
":  c #56514D",
">  c #575757",
",  c #5B5B5A",
"<  c #674845",
"1  c #6B4F46",
"2  c #624444",
"3  c #655342",
"4  c #695542",
"5  c #62574D",
"6  c #66584C",
"7  c #6D5B4B",
"8  c #715944",
"9  c #73554A",
"0  c #745C4B",
"q  c #655B52",
"w  c #705757",
"e  c #7C5751",
"r  c #77614E",
"t  c #7B634E",
"y  c #6A645D",
"u  c #746355",
"i  c #7E6651",
"p  c #74695F",
"a  c #636363",
"s  c #696565",
"d  c #736E6E",
"f  c #756664",
"g  c #7C736B",
"h  c #7E7974",
"j  c #777675",
"k  c #805656",
"l  c #8B5D5D",
"z  c #836A54",
"x  c #886F57",
"c  c #856F5A",
"v  c #8B615C",
"b  c #86725E",
"n  c #8D725A",
"m  c #93765C",
"M  c #95795F",
"N  c #99795E",
"B  c #936764",
"V  c #926A6A",
"C  c #9B6D6D",
"Z  c #877560",
"A  c #8C786B",
"S  c #947B62",
"D  c #9B7D63",
"F  c #8A7F71",
"G  c #817F7D",
"H  c #887979",
"J  c #947272",
"K  c #917F7F",
"L  c #A17F63",
"P  c #A5706E",
"I  c #AD7473",
"U  c #A57373",
"Y  c #B17676",
"T  c #B57979",
"R  c #BA7C7C",
"E  c #9D8065",
"W  c #94816D",
"Q  c #9A826D",
"!  c #84817D",
"~  c #88827D",
"^  c #9D8772",
"/  c #A18367",
"(  c #A38569",
")  c #A98769",
"_  c #A4896D",
"`  c #AC8B6C",
"'  c #B28F6F",
"]  c #AF906D",
"[  c #BC916D",
"{  c #AF8E70",
"}  c #A68B72",
"|  c #B08F71",
" . c #B49373",
".. c #B99676",
"X. c #BE9976",
"o. c #BE9A79",
"O. c #C39D7A",
"+. c #C89E79",
"@. c #C39C77",
"#. c #C6A07E",
"$. c #CAA27E",
"%. c #D4A77F",
"&. c #D8A67C",
"*. c #DBA97E",
"=. c #988E8D",
"-. c #979089",
";. c #969595",
":. c #9D9794",
">. c #9F9B97",
",. c #9D9D9C",
"<. c #BF8383",
"1. c #B38685",
"2. c #A29797",
"3. c #A89E9E",
"4. c #A39D9D",
"5. c #A5A3A2",
"6. c #ADACAC",
"7. c #ADA9A5",
"8. c #BFAFAF",
"9. c #B0ACAA",
"0. c #B4B1AE",
"q. c #B4B3B3",
"w. c #BBB6B6",
"e. c #BBB9B7",
"r. c #BDBDBD",
"t. c #C38282",
"y. c #CA8787",
"u. c #CC8888",
"i. c #D18B8B",
"p. c #DB9292",
"a. c #E19696",
"s. c #E59999",
"d. c #EB9D9D",
"f. c #CCA582",
"g. c #CFA885",
"h. c #CFAE8F",
"j. c #D4A780",
"k. c #D1A985",
"l. c #D9AC84",
"z. c #D2AB88",
"x. c #DAAF88",
"c. c #D6B086",
"v. c #DEB186",
"b. c #DDB38C",
"n. c #CFAE90",
"m. c #D0B093",
"M. c #E2B68A",
"N. c #E6BB8E",
"B. c #E6BD91",
"V. c #E8BE90",
"C. c #DFA7A7",
"Z. c #C2BEBD",
"A. c #D8BCBC",
"S. c #EFA0A0",
"D. c #F4A3A3",
"F. c #FAA7A7",
"G. c #FFAAAA",
"H. c #F2AEAE",
"J. c #FDB2B2",
"K. c #FFBCBC",
"L. c #E7C195",
"P. c #EAC193",
"I. c #C3C3C2",
"U. c #CCCBCB",
"Y. c #C8C4C4",
"T. c #DBC4C4",
"R. c #D2D0CF",
"E. c #D3D2D2",
"W. c #D8D6D6",
"Q. c #DBDBDB",
"!. c #FFC5C5",
"~. c #FCCBCB",
"^. c #FDD4D4",
"/. c #E4E4E4",
"(. c #ECEBEB",
"). c #FDE4E4",
"_. c #FFEBEB",
"`. c #F4E9E9",
"'. c #F5F4F4",
"]. c #FEF4F4",
"[. c #FFFFFF",
/* pixels */
"n.n.h.h.n.h.h.n.n.n.n.n.n.n.n.n.n.n.n.n.n.n.n.h.h.n.z.n.m.n.h.n.n.n.n.n.n.n.n.n.n.n.n.n.n.n.n.n.m.n.",
"#.$.#.$.$.$.O.f.f.f.O.O.+.f.+.f.f.O.f.+.#.$.$.$.$.#.$.O.f.f.O.O.$.O.O.f.$.+.$.O.$.O.$.$.+.O.f.O.O.f.",
"k.g.k.g.g.g.k.g.z.g.g.g.g.g.g.g.g.g.g.g.k.g.k.k.g.g.g.k.g.f.f.f.g.g.g.z.g.g.g.f.f.f.f.f.f.f.f.f.f.g.",
"$.g.g.k.g.f.f.f.f.f.g.g.g.k.f.`  .f.+.f.$.$.$.$.g.g.k.g.g.g.g.g.f.n k.g.k.g.f.f.f.+.f.O.+.f.f.g.k.g.",
"g.g.k.g.g.$.+.O.f.g.g.g.g.f.f.S z +.O.O.O.O.@.@.] O.g.g.g.g.g.z.` 8 g.g.g.k.k.g.g.g.g.g.g.g.k.g.g.g.",
"g.g.g.g.g.g.k.k.g.g.z.g...O.f.f.0 { g.k.z.o.x * s > ; E g.g.c.<.4 o.g.O.D g.k.g.g.g.g.g.g.z.g.f.g.f.",
"#.$.f.g.g.k.g.k.g.g.z.g.{ & | k./ 3  .g.o.< d Z.C.A.7.* n g.#.r 0 f...3 i k.g.k.f.f.f.g.g.k.g.f.g.f.",
"g.g.g.k.g.g.g.g.+.f.f.k.k. .i 0 n m 8 & O @ ;.H.G.J.T., o + 6 i S i i ..g.g.g.g.g.g.g.g.g.k.f.f.f.k.",
"k.z.g.z.k.k.k.g.g.g.f.| ..g.f.| S i & X @ j (.^.~.~.`.q.= @ + t S | f.f...S f.g.g.g.g.g.g.g.k.k.g.g.",
"g.g.g.g.z.g.k.k.g.g.f.D 0 i i c z i & , 5.Q.[.[.[.[.[.[.U.;.: 3 i z z i i z f.k.f.f.g.f.g.f.f.f.g.g.",
"O.O.g.z.g.g.k.k.g.k.g.g.f.O.X.@.f.n j '.[.[.[.[.[.[.[.[.[.[./.g ) f.k.k.f.+.f.O.f.O.f.f.f.f.k.g.g.g.",
"k.z.g.g.g.g.f.k.k.g.k.k.g.g.g.k.` q I.'.U./.[.[.[.[.[.[./.U.[.e.u g.k.k.g.k.g.g.g.g.g.g.g.g.k.k.z.g.",
"$.$.+.j.f.f.f.f.f.+.f.f.$.$.%.+.u q.'.a o > (.[.[.[.[.(..   ,.'.4.N f.$.$.$.f.f.f.%.+.f.+.j.f.+.$.%.",
"j.j.j.k.j.j.j.j.j.j.j.j.j.j.j.N ~ (.[., = a (.[.[.[.[./.# O ;.[./.5 +.%.l.j.j.j.j.j.j.j.k.k.k.%.j.j.",
"M.x.b.b.b.b.b.b.M.b.x.x.M.v.b.6 I.[.[.R.j 6.[.[.[.[.[.[.;.h /.[.[.5.L x.v.v.b.b.b.b.b.b.b.b.b.b.x.M.",
"j.j.j.l.x.x.b.b.b.b.M.x.+.L 9 =.'.[.[.[.[.[.[.[.[.[.[.[.[.[.[.[.[./.q O.j.b.x.b.M.M.x.l.l.k.l.l.x.x.",
"b.b.b.b.b.b.b.b.b.b.v. .9 P y.H.).[.[.[.[.[.[.[.[.[.[.[.[.[.[.[.[.).1.v 9 m k.l.M.b.b.b.b.b.x.b.b.b.",
"b.b.b.b.b.b.b.b.b.M.D B s.G.G.G.G.!._.[.[.[.[.[.[.[.[.[.[.[.[.].^.G.G.G.F.T t $.b.b.b.M.b.b.b.b.b.N.",
"b.x.x.b.M.b.M.b.M.f.e p.G.G.G.G.G.G.K.).[.[.[.[.[.[.[.[.[.[._.~.G.G.G.G.G.F.U m x.j.k.j.l.l.l.x.x.b.",
"b.x.x.b.b.b.b.b.b./ P F.G.G.G.G.G.G.G.J.^.].[.[.[.[.[.[.[.).J.G.G.F.G.G.G.G.S.< ..M.b.x.x.x.x.b.b.M.",
"b.b.b.b.M.b.b.b.b.z t.a.G.G.G.G.G.G.G.G.G.J Q.[.[.[.[./.1.G.G.G.G.G.G.G.G.G.p.U n b.b.b.b.b.b.b.b.b.",
"x.x.x.x.x.x.b.b.b.n R t.s.G.G.G.G.G.G.G.F.J Q.[.[.[.[.U.l G.G.G.G.G.G.G.F.s.R T n b.x.x.b.b.b.b.x.b.",
"z.l.j.j.l.z.x.b.b.{ l T Y t.p.s.d.s.a.i.i.K [.[.[.[.[.(.2 a.a.S.D.D.S.p.u.Y t.e ( b.k.l.b.b.b.x.l.z.",
"b.b.b.b.b.b.b.b.b.x.9 I T Y T T R R R i.V w.[.[.[.[.[.[.H y.t.R t.t.R Y Y R y.1 g.b.b.b.b.b.b.b.b.b.",
"b.b.M.x.M.v.b.b.b.v.' 4 I R Y I I R y.B 4.'.[.[.[.[.[.[.Q.f u.t.Y Y Y I T i.e ` v.v.b.v.v.v.b.v.b.b.",
"j.l.l.l.&.*.*.*.*.*.[ g ,.w U <.R V f Q.[.[.[.[.[.[.[.[.[.(.d C i.u.y.u.<.- 8 &.l.*.l.l.l.*.*.l.l.j.",
"V.N.B.B.V.V.V.V.P.N.] :.[./.U.Z.Y.W.(.[.[.[.[.[.[.[.[.[.[.[.`.U.3.H H :.w./.& b.V.V.N.N.N.V.V.V.N.V.",
"N.V.P.P.V.P.V.V.P.P.E 0.[.[.[.[.[.[.[.[.[.[.[.[.[.[.[.[.[.[.[.[.[.[.[.[.[.[.; x.N.M.N.M.M.N.N.V.M.V.",
"P.P.P.V.N.M.l.l.v.N.S I.[.[.[.[.[.[.[.[.[.[.[.[.[.[.[.[.[.[.[.[.[.[.[.[.[.[.f g.V.V.V.V.P.P.P.P.V.V.",
"P.P.P.V.V.V.P.P.P.P.Z E.[.[.[.[.[.[.[.[.[.[.[.[.[.[.[.[.[.[.[.[.[.[.[.[.[.[.h f.V.V.P.P.P.P.P.P.V.V.",
"M.M.N.V.P.P.P.P.P.P.b W.[.[.[.[.[.[.[.[.[.[.[.[.[.[.[.[.[.[.[.[.[.[.[.[.[.[.H $.V.V.V.P.V.V.V.V.V.V.",
"N.V.V.P.P.P.P.V.N.N.b R.[.[.[.[.[.[.[.[.[.[.[.[.[.[.[.[.[.[.[.[.[.[.[.[.[.[.H j.V.V.V.P.V.V.N.N.V.V.",
"V.P.P.P.P.P.P.V.M.M.M r.[.[.[.[.[.[.[.[.[.[.[.[.[.[.[.[.[.[.[.[.[.[.[.[.[.[.y k.P.P.P.P.P.P.P.P.L.L.",
"P.P.P.P.P.P.P.L.V.B.) 7.[.[.[.[.[.[.[.[.[.[.[.[.[.[.[.[.[.[.[.[.[.[.[.[.[.[.; b.P.P.P.P.P.P.P.P.L.L.",
"M.N.V.P.P.P.P.L.P.P...-.[.[.[.[.[.[.[.[.[.[.[.[.[.[.[.[.[.[.[.[.[.[.[.[.[.(.3 b.M.M.M.M.M.M.M.N.V.V.",
"P.P.P.P.P.P.P.V.P.P.c.~ '.[.[.[.[.[.[.[.[.[.[.[.[.[.[.[.[.[.[.[.[.[.[.[.[.0.) P.P.P.P.P.P.P.P.P.V.V.",
"V.N.N.B.N.N.N.B.B.N.N.W r.[.[.[.[.[.[.[.[.[.[.[.[.[.[.[.[.[.[.[.[.[.[.[.[.~ b.B.B.N.N.B.N.P.N.N.N.N.",
"%.&.%.%.%.j.j.j.k.%.%.) h [.[.[.[.[.[.[.[.[.[.[.[.[.[.[.[.[.[.[.[.[.[.[.[.7 j.j.l.%.%.%.%.%.%.%.j.j.",
"x.x.x.x.x.x.x.x.x.x.x.g.i /.[.[.[.[.[.[.[.[.[.[.[.[.[.[.[.[.[.[.[.[.[.'.;.( x.x.c.x.x.x.x.x.c.v.x.x.",
"x.l.x.v.b.M.v.b.b.v.b.x.` ! '.[.[.[.[.[.[.[.[.[.[.[.[.[.[.[.[.[.[.[.[.U.q b.v.b.b.b.b.b.v.b.b.v.b.b.",
"x.z.l.x.x.b.b.b.b.b.b.b.x.b q.[.[.[.[.[.[.[.[.[.[.[.[.[.[.[.[.[.[.[.(.f | l.x.b.b.b.b.x.k.l.k.j.x.x.",
"b.b.b.b.b.b.b.b.b.b.b.b.b.g.q U.[.[.[.[.[.[.[.[.[.[.[.[.[.[.[.[.[.'.! ( l.c.b.b.b.b.b.b.b.b.b.b.b.b.",
"b.b.B.b.b.b.b.b.b.b.b.b.b.b.x.u r.[.[.[.[.[.[.[.[.[.[.[.[.[.[.[.'.h ( b.b.b.b.b.b.b.b.b.b.v.b.b.b.b.",
"b.x.m.b.b.b.b.b.M.b.l.l.b.b.b.o.W 7.(.[.[.[.[.[.[.[.[.[.[.[.[.E.-.( x.b.b.b.b.b.c.x.z.x.x.k.x.b.v.b.",
"b.b.b.b.b.b.b.b.b.M.b.b.b.b.b.b.k.` p r.[.[.[.[.[.[.[.[.[./.G Z O.l.g.l.b.b.b.b.b.b.b.b.b.b.b.b.b.b.",
"b.b.b.b.b.b.b.b.b.b.b.b.b.c.x.c.x.x.$.4 d e.Q./.(.(./.U.>.& ` b.b.b.b.v.B.b.b.b.b.b.b.b.b.b.b.b.b.b.",
"x.x.c.x.x.x.b.b.b.b.b.b.b.x.x.x.x.x.x.x.@. .} ^ A A Q _ X.k.l.M.b.b.b.b.b.b.b.b.b.b.x.x.b.b.b.b.l.x.",
"x.x.c.x.x.b.v.b.b.b.j.k.x.b.b.b.b.b.v.b.b.v.b.b.b.b.b.v.x.x.l.s.b.b.b.b.b.b.b.b.b.v.k.x.b.b.b.b.l.l.",
"b.b.M.b.b.M.M.b.M.M.b.b.b.b.v.v.b.b.v.b.b.v.b.b.v.v.b.b.M.b.v.M.b.b.M.b.b.M.b.b.M.M.M.x.M.b.v.b.b.b.",
"l.l.j.l.l.j.l.l.j.j.l.l.l.l.l.l.l.l.l.l.l.l.l.l.l.l.l.l.l.l.j.l.l.l.l.l.l.l.j.l.j.l.l.l.l.l.l.l.l.l."
};
