/* XPM */
static char *result[] = {
/* columns rows colors chars-per-pixel */
"50 50 180 2 ",
"   c #111111",
".  c gray12",
"X  c #231E19",
"o  c #242322",
"O  c #2F2822",
"+  c gray17",
"@  c #343333",
"#  c gray22",
"$  c #40362A",
"%  c #46392C",
"&  c #5D4A3A",
"*  c #544538",
"=  c #63503F",
"-  c #4C4B4A",
";  c #4C4946",
":  c #594E43",
">  c #5A4C4C",
",  c #5B544E",
"<  c #575757",
"1  c #5B5B5A",
"2  c #674845",
"3  c #6A4E45",
"4  c #624444",
"5  c #655240",
"6  c #6B5444",
"7  c #6E5A46",
"8  c #665748",
"9  c #6B5D4F",
"0  c #65584C",
"q  c #725D47",
"w  c #75564D",
"e  c #745D4B",
"r  c #795E4C",
"t  c #645B53",
"y  c #6A5F53",
"u  c #705757",
"i  c #7C5651",
"p  c #7B644D",
"a  c #68615B",
"s  c #736355",
"d  c #7B6A5A",
"f  c #636363",
"g  c #6E6862",
"h  c #696565",
"j  c #786C60",
"k  c #736E6E",
"l  c #786764",
"z  c #7A726C",
"x  c #7C7772",
"c  c #7D7975",
"v  c #767676",
"b  c #805656",
"n  c #8B5D5D",
"m  c #81664E",
"M  c #816751",
"N  c #856C54",
"B  c #8A6E55",
"V  c #8D6A5C",
"C  c #90655F",
"Z  c #8B7157",
"A  c #85715D",
"S  c #8E745A",
"D  c #92765B",
"F  c #94785D",
"G  c #9B795C",
"H  c #926A6A",
"J  c #976A6A",
"K  c #8D7664",
"L  c #897869",
"P  c #9D7E62",
"I  c #937962",
"U  c #827F7C",
"Y  c #887A78",
"T  c #947272",
"R  c #917F7F",
"E  c #A56F6E",
"W  c #AD7473",
"Q  c #A57373",
"!  c #B17676",
"~  c #B57979",
"^  c #BA7C7C",
"/  c #9E8164",
"(  c #91806F",
")  c #85817E",
"_  c #9E8771",
"`  c #A28365",
"'  c #A3866B",
"]  c #A68969",
"[  c #AB8B6C",
"{  c #B28E6D",
"}  c #B7916F",
"|  c #AF8E70",
" . c #AC9172",
".. c #B39272",
"X. c #BA9775",
"o. c #BC9876",
"O. c #BF9B79",
"+. c #C49A76",
"@. c #CB9D76",
"#. c #C49E7A",
"$. c #C4A17D",
"%. c #C9A27E",
"&. c #D4A67F",
"*. c #DBA97E",
"=. c #958E8B",
"-. c #98938D",
";. c #969695",
":. c #9E9797",
">. c #9E9D9D",
",. c #BF8383",
"<. c #B38685",
"1. c #A29797",
"2. c #A09B97",
"3. c #A89E9E",
"4. c #A39D9D",
"5. c #A5A4A2",
"6. c #ADACAC",
"7. c #AAA7A4",
"8. c #BFAFAF",
"9. c #B0ADAA",
"0. c #B2B0AD",
"q. c #B4B3B3",
"w. c #BBB6B6",
"e. c #BBB9B7",
"r. c #BEBDBC",
"t. c #C38282",
"y. c #CA8787",
"u. c #CC8888",
"i. c #D18B8B",
"p. c #DB9292",
"a. c #E19696",
"s. c #E59999",
"d. c #EB9D9D",
"f. c #CCA582",
"g. c #CFA985",
"h. c #CFAE8F",
"j. c #D4A780",
"k. c #D1A985",
"l. c #D9AC85",
"z. c #D1AB88",
"x. c #D9AF88",
"c. c #D9B287",
"v. c #DDB38C",
"b. c #CFAE90",
"n. c #D0B093",
"m. c #E2B78B",
"M. c #E5BB8E",
"N. c #E6BD91",
"B. c #E8BF91",
"V. c #DFA7A7",
"C. c #C3BEBE",
"Z. c #D8BCBC",
"A. c #EFA0A0",
"S. c #F4A3A3",
"D. c #FAA7A7",
"F. c #FFAAAA",
"G. c #F2AEAE",
"H. c #FDB2B2",
"J. c #FFBCBC",
"K. c #E7C195",
"L. c #EAC193",
"P. c #C3C2C1",
"I. c #CCCBCB",
"U. c #C8C4C4",
"Y. c #DBC4C4",
"T. c #D1D0CF",
"R. c #D3D3D2",
"E. c #D8D6D6",
"W. c #DBDBDB",
"Q. c #FFC5C5",
"!. c #FCCBCB",
"~. c #FDD4D4",
"^. c #E4E4E4",
"/. c #ECEBEB",
"(. c #FDE4E4",
"). c #FFEBEB",
"_. c #F4E9E9",
"`. c #F5F4F4",
"'. c #FEF4F4",
"]. c #FFFFFF",
/* pixels */
"b.b.h.h.b.b.b.n.h.h.h.h.h.h.b.b.b.b.b.b.b.b.b.n.n.b.b.b.b.h.h.h.b.b.b.b.b.b.b.b.b.b.b.b.b.b.b.b.n.b.",
"%.%.%.%.%.#.#.f.f.f.#.f.f.#.#.f.f.#.f.#.f.#.#.#.%.#.#.f.f.f.#.#.#.f.#.f.#.#.#.f.f.#.f.#.f.#.#.@.f.f.",
"g.g.k.g.g.g.k.g.g.g.g.k.f.g.g.g.k.k.k.k.k.k.g.g.j.k.k.g.f.f.f.f.g.g.k.g.k.g.g.f.f.f.f.#.f.#.f.f.f.f.",
"%.g.g.k.f.f.f.f.f.f.g.k.f.f.f.f.f.f.#.f.f.#.f.f.g.g.k.g.z.z.f.f.g.k.g.k.k.j.f.f.f.f.#.f.f.f.f.f.f.g.",
"g.g.g.k.f.%.#.#.#.z.g.k.g.f.f.f.#.f.#.#.#.+.#.#.f.k.g.k.g.z.g.g.f.g.g.g.k.g.k.g.f.g.g.g.g.g.f.g.g.f.",
"g.f.g.g.k.k.k.k.g.g.z.z.g.g.g.g.k.k.g.g.z.g.g.f.k.g.k.g.g.g.z.z.f.f.g.g.g.k.g.g.g.g.g.g.g.k.k.k.g.f.",
"f.f.f.g.k.g.k.g.g.g.g.z.k.f.g.k.g.k.k.k.z.z.g.f.f.g.g.g.g.g.f.f.f.f.k.g.g.g.g.k.f.f.f.g.k.k.k.f.g.f.",
"g.g.g.g.g.k.k.f.f.f.f.g.k.%.#.%.#.f.#.#.g.f.f.f.#.f.g.g.g.z.f.z.g.k.k.g.g.g.k.g.g.g.f.g.g.g.f.f.g.g.",
"g.g.g.g.g.g.g.g.g.k.g.g.h.g.g.k.k.g.k.g.g.g.g.f.f.f.f.f.f.f.f.k.z.k.k.g.k.g.k.k.g.g.g.g.g.g.k.k.g.g.",
"g.g.g.z.g.k.g.g.k.g.k.g.g.g.k.g.g.k.g.k.g.f.f.f.#.f.+.P p r I #.k.z.k.k.k.g.g.g.f.g.f.g.f.f.f.f.g.g.",
"+.+.g.z.k.g.k.k.g.g.g.g.f.O.[ ` I A d d d A I P ..' i n ~ t.E i B f.g.g.f.#.f.#.#.#.%.f.f.f.f.g.k.g.",
"g.k.g.h.g.k.k.k.k.g.g.f.[ L L =.7.C.T.E.T.P.0.;.z 2 W ~ t.a.D.p.H [ f.k.g.g.k.k.P | g.g.g.g.k.g.g.k.",
"f.%.f.%.j.f.f.%.f.%.[ q c r.`.].].].].].].].].`.:.! ~ ! a.F.F.F.d.3 #.&.%.%.&.%.e { f.[ } f.f.&.f.f.",
"j.j.j.j.j.j.j.j.@.N U ^.].].].].].].].].].].].^.u ^ ! t.F.F.F.F.F.E ` &.j.j.&.j.p j.+.& +.k.j.j.j.j.",
"m.x.v.v.v.v.v.z.u q.`.].].].].].].].].].].].].T.Q ! ! p.F.F.F.F.F.u.r v.m.v.v.c.V l.B X.v.m.v.v.v.v.",
"j.j.j.l.l.x.O.s I.].].].].].].].].].].].].].].C.t.W ~ s.F.F.F.F.F.G.=.0 P l.v.k.D X.M l.j.P { k.l.l.",
"v.v.v.v.v.x.L r.].].].].].].].].].].].].].].].U.^ ! ^ d.F.F.F.F.F.(.`.P.) s [ k.Z ` P [ p D +.v.v.v.",
"v.v.v.v.v.| 0.].].].].].].].].].].].].].].].].E.H ^ ^ d.F.F.F.F.Q.].].]./.0.t I B N ` 6 X.v.v.v.v.N.",
"v.c.x.c.k.d /.].].].].].].].].].].].].].].].]./.g y.~ a.F.F.F.J.).].].].].`.P.x & & r } j.x.l.x.v.v.",
"v.v.x.x.7 r.].].].].].].].].].].].].].].].].].].W.H i.i.F.F.F.(.].].].R.1 f ].`.1 X 5 c.x.x.x.v.v.v.",
"v.v.v.f.z ].].].].].].].].].].].].].].].].].].].].4.H u.F.F.~.].].].].v - o I.].5.# O f.v.v.v.v.v.v.",
"l.l.x...e.].].].].].].].].].].].].].].].].].].].].`.w.R T T '.].].].].6.f < ^.].W.v + 8 f.v.m.c.v.x.",
"k.j.j._ W.].].].].].].].].].].].].].].].].].].].].].].].W.W.].].].].].]././.].].].^.:.k A v.v.x.l.z.",
"v.v.v._ ^.].].].].].].].].].].].].].].].].].].].].].].].].].].].].].].].].].].].].~.H.8.- v.v.v.v.v.",
"v.v.v.L /.].].].].].].].].].].].].].].].].].].].].].].].].].].].].].].].].].].].].!.F.V.l @.l.m.v.v.",
"*.l.l.K /.].].].].].].].].].].].].].].].].].].].].].].].].].].].].].].].].].].].].~.F.Z.> @.l.l.l.j.",
"M.M.B._ W.].].].].].].].].].].].].].].].].].].].].].].].].].].].].].].].].].].].]._.Y.7.u N.B.B.M.M.",
"M.B.K. .T.].].].].].].].].].].].].].].].].].].].].].]./.R.^.].].].].].].^./.].].].q.1 ; [ m.M.B.m.M.",
"L.L.K.f.2.].].].].].].].].].].].].].].].].].].].].E.Y 4 n <.].].].].].;.# . ^.].U.- . / B.B.B.L.B.B.",
"L.L.L.m.: /.].].].].].].].].].].].].].].].].].]./.l t.a.F.F.(.].].].].c +   I.].;.@ @ K.B.B.L.L.B.B.",
"m.m.m.B...U ].].].].].].].].].].].].].].].].].`.k u.t.s.F.F.H.).].].].^.;.>.].^., % q m.B.B.B.B.B.B.",
"M.M.M.L.L.K R.].].].].].].].].].].].].].].].].I.J t.^ d.F.F.F.!.'.].].].].`.e.L q N F Z v.B.M.M.B.B.",
"L.L.L.L.L.g.-.`.].].].].].].].].].].].].].].].3.i.! t.S.F.F.F.F.~.].].]./.>.A %.S [ ] F p $.c.K.B.K.",
"L.L.L.L.L.L.[ c `.].].].].].].].].].].].].].].R u.W t.S.F.F.F.F.F._.^.5.y [ B.L.D $.Z L.c.p / K.B.B.",
"m.m.L.L.L.L.B.[ ) /.].].].].].].].].].].].].].Y u.W ^ A.F.F.F.F.F.<.t [ v.N.M.m.Z c.B %.L.v.L.m.B.B.",
"L.L.L.L.L.L.L.K...j I.`.].].].].].].].].].].].1.u.! ~ p.F.F.F.F.F.V %.L.L.B.B.B.S M.&.q *.L.L.L.B.B.",
"M.M.B.M.M.B.M.B.v.$.y ;.].].].].].].].].].].].e.t.~ ! u.F.F.F.F.D.r v.M.M.M.N.N.Z &.M.Z ] L.L.m.M.M.",
"&.*.j.j.&.&.j.j.k.j.&.` 9 U q./.].].].].].].].^.> u.~ ~ a.F.F.D.! G &.j.&.j.j.k.B F &.*.&.&.&.&.j.l.",
"c.l.x.l.x.x.l.l.x.x.x.x.x.f.P = : a x U x g , * q i u.t.^ p.A.W r l.l.x.l.l.l.x.k.k.l.x.c.c.c.c.l.l.",
"l.l.c.v.v.v.m.v.v.v.v.l.&.&.j.l.g.%.O.O.#.%.f.k.v.[ 3 b ~ E 2 V f.m.v.v.m.m.m.v.v.v.v.m.c.v.v.c.v.v.",
"x.x.z.x.x.v.v.m.v.v.v.v.c.v.v.v.v.v.l.l.x.k.g.&.&.j.#./ Z V X.v.v.l.x.k.j.z.x.v.v.v.v.x.k.k.k.x.l.l.",
"v.v.v.v.v.v.v.v.v.v.v.v.v.v.v.v.m.v.v.v.x.x.x.z.l.x.x.l.l.x.v.v.v.v.v.v.l.x.v.v.v.v.v.v.v.v.v.v.v.v.",
"v.v.v.v.v.v.v.v.v.v.v.v.v.v.v.v.v.v.m.v.v.v.v.v.l.v.j.j.k.l.m.v.v.v.v.v.v.v.v.m.c.v.v.v.v.v.m.v.v.v.",
"v.x.x.v.v.v.v.v.v.v.x.l.v.v.m.v.v.v.l.x.l.v.v.v.k.k.x.x.k.x.x.v.v.v.v.m.v.v.v.v.c.c.x.l.x.j.l.x.v.v.",
"v.v.v.v.v.v.v.v.m.v.v.v.v.v.v.v.v.v.k.x.z.z.v.v.v.l.k.@.&.k.c.v.v.k.j.x.v.v.v.v.v.v.v.v.v.v.v.v.v.v.",
"v.v.v.v.v.v.v.v.v.v.v.m.v.x.x.x.x.l.x.k.x.v.v.v.m.v.v.v.v.v.m.v.v.v.v.v.m.v.v.v.v.v.v.v.v.v.v.v.m.v.",
"v.l.x.n.v.v.x.v.v.v.v.v.v.c.x.x.l.l.z.x.l.l.v.v.v.v.v.v.v.l.x.x.v.v.v.m.v.v.v.v.v.v.v.x.v.v.v.v.l.l.",
"l.l.c.l.x.x.v.v.v.v.k.k.x.v.v.v.v.v.m.v.m.v.v.v.v.v.m.v.l.l.l.x.v.v.v.v.v.v.v.v.v.v.l.l.v.v.v.c.l.l.",
"v.v.m.m.v.x.m.x.v.v.v.l.m.m.l.m.v.v.l.m.v.v.v.v.m.m.m.m.d.m.v.m.m.v.m.v.m.v.x.m.v.v.v.l.m.v.l.m.v.v.",
"l.l.j.l.l.l.l.l.l.l.l.l.l.l.l.*.l.l.l.l.l.l.l.l.j.j.l.j.*.*.*.l.l.l.l.j.l.l.l.l.l.l.l.l.l.l.l.l.l.l."
};
