/* XPM */
static char *result[] = {
/* columns rows colors chars-per-pixel */
"50 50 184 2 ",
"   c #111111",
".  c gray12",
"X  c #241F1A",
"o  c #242322",
"O  c gray17",
"+  c #302A23",
"@  c #3D3228",
"#  c #333332",
"$  c gray22",
"%  c #44382C",
"&  c #514438",
"*  c #564A3F",
"=  c #5E4D3E",
"-  c #64523E",
";  c #4B4846",
":  c #4B4B4B",
">  c #504C48",
",  c #584C48",
"<  c #5A534E",
"1  c #575757",
"2  c #5B5B5B",
"3  c #644644",
"4  c #694D45",
"5  c #645343",
"6  c #6B5444",
"7  c #6C5844",
"8  c #665A4F",
"9  c #6B5C4E",
"0  c #705D47",
"q  c #745D4A",
"w  c #7A594F",
"e  c #725348",
"r  c #645B51",
"t  c #705757",
"y  c #7A5651",
"u  c #7D634C",
"i  c #66605A",
"p  c #716353",
"a  c #7F6650",
"s  c #7F6D5C",
"d  c #636363",
"f  c #6B6664",
"g  c #736E6E",
"h  c #776663",
"j  c #7B7369",
"k  c #7A7672",
"l  c #7E7975",
"z  c #767676",
"x  c #805656",
"c  c #8B5D5D",
"v  c #82664E",
"b  c #806550",
"n  c #856B53",
"m  c #896F56",
"M  c #826F5D",
"N  c #8C625D",
"B  c #8A7057",
"V  c #8B735A",
"C  c #94765C",
"Z  c #94795D",
"A  c #987B5F",
"S  c #936663",
"D  c #926A6A",
"F  c #9B6D6D",
"G  c #8C7563",
"H  c #8F7862",
"J  c #81776E",
"K  c #86796E",
"L  c #8D7669",
"P  c #947B62",
"I  c #9B7E62",
"U  c #827E7B",
"Y  c #887979",
"T  c #947272",
"R  c #917F7F",
"E  c #A6706E",
"W  c #AD7473",
"Q  c #A57373",
"!  c #B17676",
"~  c #B57979",
"^  c #BA7C7C",
"/  c #9B816A",
"(  c #82807E",
")  c #8A857F",
"_  c #968572",
"`  c #A28366",
"'  c #A3856A",
"]  c #A88769",
"[  c #A7896A",
"{  c #AA8B6C",
"}  c #B28D6D",
"|  c #AE906E",
" . c #B3916F",
".. c #A68D72",
"X. c #B38F70",
"o. c #B59272",
"O. c #BA9573",
"+. c #B79875",
"@. c #BC9877",
"#. c #BE9C7A",
"$. c #C19772",
"%. c #C29B77",
"&. c #C49E7A",
"*. c #C89C76",
"=. c #C5A17D",
"-. c #C9A27E",
";. c #D4A67F",
":. c #DBA97E",
">. c #988F8D",
",. c #948D88",
"<. c #979089",
"1. c #99948F",
"2. c #969595",
"3. c #9E9797",
"4. c #9F9B97",
"5. c #9E9D9C",
"6. c #BF8383",
"7. c #B38685",
"8. c #A29797",
"9. c #A89E9E",
"0. c #A39D9D",
"q. c #ADACAC",
"w. c #A7A5A3",
"e. c #BFAFAF",
"r. c #B1AEAA",
"t. c #B3B0AD",
"y. c #B2B2B2",
"u. c #BAB6B5",
"i. c #B9B8B7",
"p. c #BEBCBB",
"a. c #C38282",
"s. c #CA8787",
"d. c #CC8888",
"f. c #D18B8B",
"g. c #DB9292",
"h. c #E19696",
"j. c #E59999",
"k. c #EB9D9D",
"l. c #CCA582",
"z. c #CFA985",
"x. c #CFAE8F",
"c. c #D4A780",
"v. c #D1AA85",
"b. c #D9AC85",
"n. c #D1AB88",
"m. c #D9AF88",
"M. c #DDB38C",
"N. c #CFAE90",
"B. c #D0B093",
"V. c #E2B68B",
"C. c #E5BB8E",
"Z. c #E6BD91",
"A. c #E8BF91",
"S. c #DFA7A7",
"D. c #C3BEBE",
"F. c #D8BCBC",
"G. c #EFA0A0",
"H. c #F4A3A3",
"J. c #FAA7A7",
"K. c #FFAAAA",
"L. c #F2AEAE",
"P. c #FDB2B2",
"I. c #FFBCBC",
"U. c #E7C195",
"Y. c #EAC193",
"T. c #C3C2C1",
"R. c #CCCBCB",
"E. c #C8C4C4",
"W. c #DBC4C4",
"Q. c #D1D0CF",
"!. c #D3D2D2",
"~. c #D8D6D6",
"^. c #DBDBDB",
"/. c #FFC5C5",
"(. c #FCCBCB",
"). c #FDD4D4",
"_. c #E4E4E4",
"`. c #ECEBEB",
"'. c #FDE4E4",
"]. c #FFEBEB",
"[. c #F4E9E9",
"{. c #F5F4F4",
"}. c #FEF4F4",
"|. c #FFFFFF",
/* pixels */
"N.N.x.x.x.x.x.B.N.N.N.N.N.N.N.N.N.N.N.N.N.N.N.B.x.x.N.N.N.x.x.x.B.x.x.x.x.x.N.N.N.B.N.N.B.x.x.N.B.x.",
"=.-.=.-.-.&.&.l.l.l.%.l.l.%.&.l.l.&.l.&.l.&.&.&.&.l.l.&.l.l.l.%.&.&.l.&.&.l.l.&.&.&.l.&.&.&.l.&.&.l.",
"v.v.z.z.v.v.n.n.z.z.c.n.l.z.z.l.z.l.c.z.v.v.l.v.b.n.v.v.l.l.l.l.l.v.v.z.v.v.l.l.l.c.l.&.&.l.l.l.c.z.",
"-.z.v.z.z.l.-.l.l.l.z.z.z.z.l.l.l.l.l.l.l.&.l.l.l.l.v.z.z.z.l.l.z.v.z.v.n.v.l.l.l.l.&.l.l.l.l.l.z.n.",
"z.v.z.z.l.&.&.&.l.z.z.n.z.l.l.l.&.l.&.&.&.%.&.&.l.c.z.z.z.n.z.z.z.v.z.z.z.v.z.n.z.l.n.c.z.z.v.v.z.l.",
"z.z.l.z.v.v.v.v.v.n.z.z.z.c.l.z.z.z.v.n.n.v.v.n.z.z.z.z.z.z.n.z.z.z.v.z.v.z.v.z.z.n.z.n.z.z.l.v.z.l.",
"l.l.l.z.v.v.n.v.l.l.n.n.z.l.z.z.z.v.v.v.n.n.z.z.z.z.z.z.z.z.z.l.l.&.z.z.z.v.z.v.l.l.l.l.n.n.l.l.l.l.",
"z.l.z.v.z.v.v.l.l.l.l.z.z.l.%.l.&.l.&.&.l.l.l.&.%.l.z.z.z.z.z.z.z.v.z.v.z.z.z.v.l.n.l.z.v.l.l.l.l.n.",
"z.z.z.z.z.v.z.v.z.z.v.z.n.z.z.n.n.v.v.v.n.z.z.l.l.l.l.l.-.l.l.v.n.n.n.v.z.v.v.z.z.z.z.z.z.v.z.v.n.z.",
"z.z.n.z.v.z.v.z.z.v.z.z.z.z.z.z.z.v.l.X.n b P @.l.l.-.-.&.&.l.v.z.z.z.n.z.z.v.z.l.z.l.z.l.l.l.l.c.z.",
"%.&.z.n.v.z.v.v.z.v.v.z.l.&.%.l.v.#.n 3 W ! x 4 E l.=.#.O.O.o.{ o.&.l.z.l.&.=.&.=.-.-.l.l.l.z.v.n.l.",
"v.n.z.z.z.v.v.v.l.l.z.z.v.z.v.c.z.w Q G.g.^ a.s.y 7 & < f k U k r > = Z l.z.v.v.v.z.n.z.z.z.v.v.v.n.",
"l.&.l.l.c.l.-.-.V n l.-.;.&.l.l.C ~ J.K.K.j.! ~ f., _.|.|.|.|.|.|.|.`.y.,.9 A -.-.-.;.-.l.l.-.-.l.&.",
"c.c.c.c.c.I b c.$.b c.c.c.c.c.*.e J.K.K.K.K.s.! ~ a.u.|.|.|.|.|.|.|.|.|.|.{.3.r } ;.c.c.c.c.c.c.c.c.",
"V.m.M.m.m.z.6 &.b.n M.m.V.m.V.%.N K.K.K.K.K.g.~ W d.8.|.|.|.|.|.|.|.|.|.|.|.{.R.h { M.M.M.m.M.M.V.V.",
"c.c.b.b.b.m.l.n v.m V.b.c.$.P r 7.K.K.K.K.K.H.^ ! d.Y |.|.|.|.|.|.|.|.|.|.|.|.|.`.( ' c.b.b.b.v.b.b.",
"M.M.M.A q -.V.n @.m M.M.[ r w._.'.K.K.K.K.K.H.a.W d.Y |.|.|.|.|.|.|.|.|.|.|.|.|.|.{.l ' M.M.M.M.M.M.",
"M.V.M.v.O.0 B / ` m @.s 5._.|.|.|.).K.K.J.K.H.a.! f.9.|.|.|.|.|.|.|.|.|.|.|.|.|.|.|.{.<.&.M.M.M.M.C.",
"M.M.m.M.V.l.b V b 7 J i.{.|.|.|.|.}.(.K.K.K.G.^ a.F R.|.|.|.|.|.|.|.|.|.|.|.|.|.|.|.|.~.M m.b.b.m.M.",
"M.b.m.M.M.M.v.7 % < _.|.5.2._.|.|.|.].P.K.K.j.a.s.g `.|.|.|.|.|.|.|.|.|.|.|.|.|.|.|.|.|.l [ M.M.M.V.",
"M.M.M.M.M.M.M.@ # 2.|.R.  O l |.|.|.|.'.K.K.j.a.M `.|.|.|.|.|.|.|.|.|.|.|.|.|.|.|.|.|.|.`.* v.M.M.M.",
"b.b.m.M.b.b.Z o : R.|._.. $ 5.|.|.|.|.|.7.c 3 J ~.|.|.|.|.|.|.|.|.|.|.|.|.|.|.|.|.|.|.|.|.3.&.M.M.m.",
"v.v.v.;.v.` ; 2 y.|.|.|.`._.|.|.|.|.|.|._.!.`.|.|.|.|.|.|.|.|.|.|.|.|.|.|.|.|.|.|.|.|.|.|.Q.' b.b.n.",
"M.M.M.M.M.8 q.W.[.|.|.|.|.|.|.|.|.|.|.|.|.|.|.|.|.|.|.|.|.|.|.|.|.|.|.|.|.|.|.|.|.|.|.|.|.^._ M.M.M.",
"M.M.M.M.;.1 F.K.(.|.|.|.|.|.|.|.|.|.|.|.|.|.|.|.|.|.|.|.|.|.|.|.|.|.|.|.|.|.|.|.|.|.|.|.|.`.L M.M.M.",
":.b.b.:.$.f S.K.(.|.|.|.|.|.|.|.|.|.|.|.|.|.|.|.|.|.|.|.|.|.|.|.|.|.|.|.|.|.|.|.|.|.|.|.|.`.G :.c.c.",
"A.C.A.A.C.: e.L.).|.|.|.|.|.|.|.|.|.|.|.|.|.|.|.|.|.|.|.|.|.|.|.|.|.|.|.|.|.|.|.|.|.|.|.|._...C.A.A.",
"C.A.Y.Y.Y.P g 8.`.|.|.|.`.`.|.|.|.|.|.|.^.^.|.|.|.|.|.|.|.|.|.|.|.|.|.|.|.|.|.|.|.|.|.|.|.^...V.C.C.",
"Y.Y.Y.Y.V.-.5 # g ^.|._.1 d q.|.|.|.|.}.T T R u.{.|.|.|.|.|.|.|.|.|.|.|.|.|.|.|.|.|.|.|.|.u.&.Y.A.A.",
"Y.Y.Y.Y.Y.Y.v.+ $ w.|.R.o ; z |.|.|.|.).K.J.f.D 0.|.|.|.|.|.|.|.|.|.|.|.|.|.|.|.|.|.|.|.|.k m.U.A.A.",
"M.:.V.Y.Y.Y.Y.7 X 2 {.{.d 1 Q.|.|.|.'.P.K.K.f.f.S ^.|.|.|.|.|.|.|.|.|.|.|.|.|.|.|.|.|.|.p.e A.A.A.A.",
"Y.Y.Y.Y.Y.Y.-.n 5 5 l T.{.|.|.|.|.].I.K.K.J.h.^ d.f `.|.|.|.|.|.|.|.|.|.|.|.|.|.|.|.|.`.M V.C.V.A.A.",
"Y.Y.Y.Y.Y.%.0 [ m n / 0 r.`.{.|.|./.K.K.K.K.k.~ ^ D ~.|.|.|.|.|.|.|.|.|.|.|.|.|.|.|.|.r.+.Y.Y.U.Y.Y.",
"Y.Y.Y.;./ a | [ [ ` V.=.s ) T.{.'.K.K.K.K.K.k.^ ! ^ E.|.|.|.|.|.|.|.|.|.|.|.|.|.|.|.p._ C.Y.Y.Y.A.A.",
"V.V.Y.=.| Y.Y.n %./ ;.Z.M./ 8 <.L.K.K.K.K.K.j.^ W 6.D.|.|.|.|.|.|.|.|.|.|.|.|.|.|.R.p =.V.V.V.C.A.A.",
"Y.Y.Y.Y.Y.Y.=./ C./ C.Y.Y.U.U.a s.K.K.K.K.K.g.! ! Q R.|.|.|.|.|.|.|.|.|.|.|.|.{.u.p M.Y.Y.Y.Y.Y.A.A.",
"Y.Y.Y.Y.M.;.- ;.M.m U.U.Y.Y.Y.} E K.K.K.K.K.s.W ^ t _.|.|.|.|.|.|.|.|.|.|.|._.U V m.C.C.C.A.C.A.C.C.",
";.;.;.;.;.$.| ;. .u ;.;.;.;.;.*.4 k.K.K.K.j.! ~ W 5.|.|.|.|.|.|.|.|.|.}.p.l q } v.;.;.;.;.;.;.;.;.:.",
":.m.m.m.m.:.m.m. .` m.m.m.m.:.:.X.S g.J.h.6.~ W 4 k 1.t.D.Q.!.Q.p.q.,.K P | v.b.M.m.b.M.m.b.b.b.m.m.",
";.m.m.M.M.M.V.M.m.M.M.m.;.;.;.M.M.E y E $.~ N w o.%.] P G M M M P P { -.M.M.M.M.M.M.M.M.M.M.M.V.M.M.",
"m.m.n.m.n.M.M.M.M.M.M.M.M.M.M.M.M.M.-.` v n ` -.;.;.b.m.b.M.M.M.V.m.v.b.;.v.M.M.M.M.M.v.m.v.v.b.m.m.",
"M.M.M.M.M.M.M.M.M.M.M.M.M.M.M.M.M.V.M.M.m.b.v.m.m.v.b.b.b.b.M.M.M.M.M.m.m.m.M.M.M.M.M.M.M.M.M.M.M.M.",
"M.M.M.M.M.M.M.M.M.M.M.M.C.M.M.M.M.M.M.M.M.M.M.m.m.M.v.b.v.b.M.M.M.M.M.M.M.M.M.V.M.m.M.M.M.M.M.V.M.M.",
"M.m.m.M.M.M.M.C.M.M.:.m.x.M.M.M.M.M.M.m.M.M.M.M.b.v.b.v.m.b.m.M.M.M.M.M.M.M.M.M.M.v.m.m.m.b.v.m.m.M.",
"M.M.M.C.M.M.M.M.M.C.M.M.M.M.M.M.M.m.b.b.v.m.M.M.M.m.c.%.-.b.M.M.M.b.;.m.M.M.M.M.M.M.M.M.M.M.M.M.M.M.",
"M.M.M.M.M.M.M.M.M.M.M.M.M.M.m.m.v.b.b.v.v.M.M.M.M.M.M.M.M.M.M.M.M.M.M.M.V.M.M.M.V.M.M.M.M.M.V.M.M.V.",
"m.m.m.x.M.m.M.M.M.M.M.M.M.m.m.b.m.m.b.m.b.M.M.M.M.M.M.M.M.m.b.M.M.M.M.M.M.M.M.M.M.M.m.m.M.M.M.M.b.M.",
"m.m.m.m.m.m.M.M.M.M.;.;.m.M.M.M.M.M.M.M.M.M.M.M.M.M.V.M.m.b.b.m.M.M.M.M.M.M.M.M.M.M.v.m.M.M.M.M.b.b.",
"M.M.M.M.M.M.M.M.M.M.M.M.M.M.M.M.M.M.M.M.M.V.M.M.M.M.V.M.M.M.M.V.M.M.M.V.M.M.M.M.V.V.M.V.V.m.M.M.M.M.",
":.:.b.:.b.:.:.b.b.b.:.b.:.b.:.b.b.b.:.b.b.b.:.b.:.b.b.b.:.b.:.b.b.b.b.:.b.b.b.b.c.:.b.c.b.b.b.b.c.b."
};
