/* XPM */
static char *result[] = {
/* columns rows colors chars-per-pixel */
"50 50 186 2 ",
"   c #111111",
".  c gray12",
"X  c #231E19",
"o  c #242322",
"O  c #2E2721",
"+  c gray17",
"@  c #3D3228",
"#  c #333332",
"$  c gray22",
"%  c #44372B",
"&  c #4F443A",
"*  c #5A4A3B",
"=  c #624F3E",
"-  c #4D4A47",
";  c #4B4B4B",
":  c #5C4F43",
">  c #5A4C4C",
",  c #57524E",
"<  c #5C544D",
"1  c #575757",
"2  c #5B5B5A",
"3  c #6A4B45",
"4  c #624444",
"5  c #655343",
"6  c #6B5444",
"7  c #6D5945",
"8  c #65594E",
"9  c #6C5D4F",
"0  c #725B46",
"q  c #755D4A",
"w  c #7A5C4E",
"e  c #645A51",
"r  c #6A5E51",
"t  c #705757",
"y  c #7C5650",
"u  c #7C5B51",
"i  c #7C654E",
"p  c #68625C",
"a  c #7F6550",
"s  c #7F6A57",
"d  c #74695F",
"f  c #7E6C5B",
"g  c #776555",
"h  c #636363",
"j  c #6E6863",
"k  c #696565",
"l  c #716860",
"z  c #736E6E",
"x  c #786464",
"c  c #77716B",
"v  c #7C746C",
"b  c #7B7671",
"n  c #7C7875",
"m  c #767676",
"M  c #805656",
"N  c #8B5D5D",
"B  c #80664E",
"V  c #846B53",
"C  c #896F56",
"Z  c #856859",
"A  c #8C7057",
"S  c #82705E",
"D  c #8D7258",
"F  c #92755B",
"G  c #95795F",
"H  c #9E7C5F",
"J  c #926A6A",
"K  c #966967",
"L  c #877367",
"P  c #8D7661",
"I  c #8F7862",
"U  c #877B6F",
"Y  c #89796A",
"T  c #957C66",
"R  c #9A7E64",
"E  c #817F7C",
"W  c #877A77",
"Q  c #947272",
"!  c #917F7F",
"~  c #A6706E",
"^  c #AD7473",
"/  c #A57373",
"(  c #B17676",
")  c #B57979",
"_  c #BA7C7C",
"`  c #9E8064",
"'  c #96816E",
"]  c #9D846D",
"[  c #83807E",
"{  c #8A847E",
"}  c #A18366",
"|  c #AE8665",
" . c #A48569",
".. c #A88769",
"X. c #A68969",
"o. c #AB8B6C",
"O. c #B38F6F",
"+. c #B6906F",
"@. c #AA8C71",
"#. c #AF9072",
"$. c #B59271",
"%. c #BA9674",
"&. c #BD9876",
"*. c #BD9B7C",
"=. c #C39D7A",
"-. c #C79E79",
";. c #C6A17D",
":. c #C9A27E",
">. c #D4A77F",
",. c #DBA97E",
"<. c #948E88",
"1. c #988F8D",
"2. c #9A958F",
"3. c #969595",
"4. c #9E9797",
"5. c #9D9D9C",
"6. c #9D9895",
"7. c #BF8383",
"8. c #B38685",
"9. c #A29797",
"0. c #A89E9E",
"q. c #A39D9D",
"w. c #A5A4A2",
"e. c #ADABAB",
"r. c #AAA7A4",
"t. c #BFAFAF",
"y. c #B3B0AE",
"u. c #B4B3B3",
"i. c #BBB6B6",
"p. c #BAB9B7",
"a. c #BDBDBC",
"s. c #C38282",
"d. c #CA8787",
"f. c #CC8888",
"g. c #D18B8B",
"h. c #DB9292",
"j. c #E19696",
"k. c #E59999",
"l. c #EB9D9D",
"z. c #CCA582",
"x. c #CFA885",
"c. c #CFAE8F",
"v. c #D5A780",
"b. c #D1A985",
"n. c #DAAC85",
"m. c #D1AB88",
"M. c #D9AF88",
"N. c #DAB186",
"B. c #DDB38C",
"V. c #CFAE90",
"C. c #D0B093",
"Z. c #E2B68A",
"A. c #E6BB8E",
"S. c #E6BD91",
"D. c #E8BE91",
"F. c #DFA7A7",
"G. c #C2BEBD",
"H. c #D8BCBC",
"J. c #EFA0A0",
"K. c #F4A3A3",
"L. c #FAA7A7",
"P. c #FFAAAA",
"I. c #F2AEAE",
"U. c #FDB2B2",
"Y. c #FFBCBC",
"T. c #E7C195",
"R. c #EAC193",
"E. c #C3C2C2",
"W. c #CCCBCB",
"Q. c #C8C4C4",
"!. c #DBC4C4",
"~. c #D1D0CF",
"^. c #D3D2D2",
"/. c #D8D6D6",
"(. c #DBDBDB",
"). c #FFC5C5",
"_. c #FCCBCB",
"`. c #FDD4D4",
"'. c #E4E4E4",
"]. c #ECEBEB",
"[. c #FDE4E4",
"{. c #FFEBEB",
"}. c #F4E9E9",
"|. c #F5F4F4",
" X c #FEF4F4",
".X c #FFFFFF",
/* pixels */
"V.V.c.V.V.c.c.C.V.V.V.V.V.V.V.V.V.V.V.V.V.V.V.V.V.V.V.V.V.c.c.V.V.V.V.V.V.V.V.V.V.c.V.V.V.V.V.V.C.V.",
";.:.:.;.:.;.-.z.z.-.z.=.z.-.z.-.-.;.:.;.:.;.;.:.;.:.z.-.z.z.-.=.;.:.:.;.;.:.:.:.;.:.:.;.;.;.:.-.;.z.",
"b.x.b.x.x.x.x.x.x.x.b.x.x.x.x.x.x.x.x.b.b.b.b.x.b.x.b.x.z.z.z.z.x.x.b.x.b.x.z.z.z.z.:.:.:.:.:.z.z.x.",
":.x.x.b.z.z.z.z.z.z.x.b.x.x.z.z.z.:.z.z.=.o.T I L L ' ] @.*.z.z.x.b.x.x.b.z.z.z.z.:.:.z.z.z.z.x.x.x.",
"x.b.x.x.z.:.-.-.;.m.m.x.z.z.z.z.;.:.-.T & 6.W.'.].].'./.p.z 5 =.x.b.x.b.x.b.b.x.x.x.x.x.x.m.x.b.x.x.",
"x.z.x.x.b.b.x.x.b.x.m.x.x.x.x.x.x.%.f n ]..X.X.X.X.X.X.X.X.Xa.l } ;.b.x.b.x.x.b.x.x.x.x.m.x.b.x.x.z.",
"z.z.z.x.x.b.m.x.x.x.x.m.x.z.x.z.T <./..X.X.X.X.X.X.X.X.X.X.X.X].e.Y $.x.x.b.b.x.z.z.z.z.x.x.x.z.z.z.",
"x.x.x.x.b.x.b.z.:.z.z.x.x.z.=.D n |..X.X.X.X.X.X.X.X.X.X.X.X.X.X.Xa.r z.x.x.x.x.x.z.z.x.b.x.z.:.x.b.",
"x.x.x.x.x.x.b.x.x.b.x.x.c.z.` <.|..X.X.X.X.X.X.X.X.X.X.X.X.X.X.X.X.XW.8 -.b.x.b.x.x.x.x.x.b.x.b.x.x.",
"x.x.x.x.b.x.x.b.b.x.b.x.x.#.l ]..X.X.X.X.X.X.X.X.X.X.X.X.X.X.X.X.X.X.Xu.s x.x.x.z.x.x.x.z.z.z.z.x.x.",
"=.=.x.m.x.b.b.b.b.x.x.x.-.e W..X.X.X.X.X.X.X.X.X.X.X.X.X.X.X.X.X.X.X.X|.E  .=.-.-.;.:.z.x.z.b.b.x.x.",
"b.x.x.c.b.x.x.b.x.x.b.x.} 3.|..X.X.X.X.X.X.X.X.X.X.X.X.X.X.X.X.X.X.X.X.X'.g z.b.x.x.x.x.x.x.b.b.b.b.",
":.:.:.v.z.:.z.z.:.:.v.-.t  X.X.X.X.X.X.X.X.X.X.X.X.X.X.X.X.X.X.X.X.X.X.X.Xn ..:.z.:.:.>.:.z.:.:.-.z.",
">.,.>.v.v.b.v.v.v.v.v.-.[ .X.X.X.X.X.X.X.X.X.X.X.X.X.X.X.X.X.X.X.X.X.X.X.Xa.P >.v.v.>.v.>.b.v.v.v.v.",
"B.B.B.B.Z.B.B.B.Z.B.B.R u..X.X.X.X.X.X.X.X.X.X.X.X.X.X.X.X.X.X.X.X.X.X.X.X|.U :.B.B.B.B.B.B.B.B.Z.B.",
">.v.v.b.n.B.M.B.Z.M.M.5 ]..X.X.X.X.X.X.X.X.X.X.X.X.X.X.X.X.X.X.X.X.X.X.X.X.X<.o.B.B.B.M.n.n.b.v.n.n.",
"B.B.B.B.B.B.B.B.B.B.x.: .X.X.X.X.X.X.X.X.X.X.X.X.X.X.X.X.X.X.X.X.X.X.X.X.X.Xr.R B.B.Z.B.B.B.B.B.B.B.",
"B.B.B.B.B.B.B.B.B.B.:.p .X.X.X.X.X.X.X.X.X.X.X.X.X.X.X.X.X.X.X.X.X.X.X.X.X.Xa.I B.B.B.B.B.B.B.B.Z.A.",
"B.N.n.B.B.B.B.B.B.B.+.b .X.X.X.X.X.X.X.X.X.X.X.X.X.X.X.X.X.X.X.X.X.X.X.X.X.X~.S B.v.b.v.b.n.n.n.M.B.",
"B.B.B.B.B.B.B.B.B.B.=.E .X.X.X.X.X.X.X.X.X.X.X.X.X.X.X.X.X.X.X.X.X.X.X.X.X.X/.f B.B.B.B.B.M.M.B.B.B.",
"B.B.B.B.B.B.B.B.B.B.;.b .X.X.X.X.X.X.X.X.X.X.X.X.X.X.X.X.X.X.X.X.X.X.X.X.X.X^.S B.B.B.B.B.B.B.B.B.B.",
"n.n.M.M.n.B.B.B.B.B.;.j .X.X.X.X.X.X.X.X.X.X.X.X.X.X.X.X.X.X.X.X.X.X.X.X.X.XE.D B.B.M.M.B.B.B.B.B.M.",
"n.>.b.b.n.n.B.B.B.B.x., .X.X.X.X.X.X.X.X.X.X.X.X.X.X.X.X.X.X.X.X.X.X.X.X.X.Xy.T B.B.b.n.B.B.B.B.n.m.",
"B.B.B.B.B.B.B.B.B.Z.:.& '.i.9.W ! q.Q.|..X.X.X.X.X.X.X.X.X.X.X]./.Q.G.~.(..X6.X.B.B.B.B.B.B.B.B.M.B.",
"B.B.B.B.B.B.B.Z.B.B.M.0 > s.f.f.f.g.~ z ]..X.X.X.X.X.X.X.X.X/.j J _ s./ t 5.v =.Z.n.B.Z.M.Z.M.Z.B.B.",
",.n.n.,.,.,.,.,.,.,.| y g.) ( ^ ^ ^ s.f.S /..X.X.X.X.X.X|.q.K d._ ( ^ ( _ ^ 3 | ,.,.n.n.,.,.,.,.n.v.",
"A.A.R.S.A.D.A.A.D.N.6 f.) ^ ) _ s.7._ s.d.n .X.X.X.X.X.Xi.J f._ ) _ ) ( ( ) ^ u Z.A.D.A.D.A.D.A.A.A.",
"Z.R.T.T.R.R.R.D.R.o.M s.( f.h.K.K.K.l.j.j.4 ]..X.X.X.X.X! g.g.j.l.l.k.h.s.( _ N +.Z.A.Z.Z.Z.A.D.A.A.",
"R.R.R.R.Z.Z.,.n.Z.F ( _ k.P.P.P.P.P.P.P.P.N ^..X.X.X.X'.Q P.P.P.P.P.P.P.P.j.s.) R D.D.D.R.R.R.R.D.D.",
"R.R.R.R.R.R.R.R.R.G ~ h.P.P.P.P.P.P.P.P.P.8.'..X.X.X.X/.Q P.P.P.P.P.P.P.P.P.j.s.C D.R.R.R.R.R.R.R.D.",
"Z.Z.Z.A.R.R.R.R.R.:.4 J.P.P.P.P.P.P.P.U.[..X.X.X.X.X.X.X X`.P.P.P.P.P.P.P.P.P.~ | A.D.R.D.R.D.D.D.D.",
"A.A.D.R.R.R.R.D.A.Z.K ^ L.P.P.P.P.P._.{..X.X.X.X.X.X.X.X.X.X[.Y.P.P.P.P.P.P.h.u M.D.D.R.D.D.A.A.D.D.",
"R.R.R.R.R.R.D.S.Z.Z.v.V ) L.P.P.P.`. X.X.X.X.X.X.X.X.X.X.X.X.X{.).P.P.P.P.l.K X.R.R.R.R.R.R.R.R.T.R.",
"R.R.R.R.R.R.R.R.D.D.R.R.o.w Z 8.[..X.X.X.X.X.X.X.X.X.X.X.X.X.X.X.X[.I.d.~ q &.R.R.R.R.R.R.R.A.R.T.T.",
"Z.Z.R.R.R.R.T.T.R.R.R.D.A.M.-.8 '..X.X.X.X.X.X.X.X.X.X.X.X.X.X.X.X|.1.a +.B.A.Z.Z.Z.Z.Z.Z.Z.Z.A.S.T.",
"R.R.R.R.R.R.R.R.T.R.R.R.D.R.D...w..X.X'.n 3..X.X.X.X.X.Xe.m ~..X.XE.9 R.R.R.R.T.R.R.R.R.R.R.R.R.S.S.",
"D.D.A.A.A.A.A.A.S.S.S.A.S.S.A.M.e ]..X3.+ $ '..X.X.X.X].h - 2 .X].{ ..Z.A.A.A.S.R.A.A.A.A.A.R.A.S.A.",
">.,.>.>.>.>.>.>.v.v.>.>.v.v.,.>.H 5.|.5.  . ]..X.X.X.X|.1 o h |.u.g :.>.>.,.>.>.v.>.>.>.,.>.>.>.v.v.",
"n.n.M.M.B.M.n.M.M.M.M.M.M.n.M.M.M.f u..X~.'..X.X.X.X.X.X'.W.|.E.e $.M.M.N.n.B.M.B.n.n.M.M.n.N.M.M.M.",
"n.n.N.B.B.B.Z.B.B.B.B.M.:.>.v.B.B.%.U '..X.X.X.X.X.X.X.X.X.X|.n G m.b.B.B.B.B.B.B.B.B.B.B.B.B.B.B.B.",
"M.M.m.M.M.B.B.B.B.B.B.B.D V C C C V 7 , 3.Q..X.X.X.X.X.X(.w.2 4 V D D V i i ` M.B.B.B.M.m.n.b.n.M.M.",
"B.B.B.B.B.B.B.B.B.B.B.m.` ;.m.n.&.` a % # ; p.]._._._.].m $ X * C ` %.b.n.&.%.B.B.B.B.B.B.B.B.B.B.Z.",
"B.B.B.B.B.B.B.B.B.B.B.Z.B.M.;.C V ` D 0 @ o 2 !.P.P.I.4.+ O 3 a ` ` a D :.B.B.B.M.M.B.B.B.B.B.B.B.B.",
"B.M.M.B.B.B.B.B.B.B.M.b.M.C 7 ;.B.A V :.N.G - r.H.F.t.m 5 =.B.=.7 o.B.&.= &.B.B.B.M.M.m.M.b.n.M.M.B.",
"B.B.B.B.B.B.B.B.B.B.B.B.B. .x.B.x.0 ;.b.n.v. .p 1 k ; s =.v.M.M.$.i :.,.z.:.B.B.B.B.B.B.B.B.B.B.B.Z.",
"B.B.B.B.B.B.B.B.Z.B.B.B.B.M.m.n.0 $.n.n.n.N.B.B.x.;.N.B.Z.Z.B.B.B.F X.B.B.B.B.B.B.B.B.B.B.B.B.B.B.Z.",
"M.M.B.M.M.B.B.B.B.B.B.B.B.N.B.n.F :.n.M.n.M.B.B.B.B.B.B.M.M.M.n.B.;.%.B.B.Z.B.B.B.B.M.M.B.B.B.B.n.n.",
"m.M.M.M.M.B.B.B.B.B.v.b.n.B.B.B.B.B.B.B.B.B.B.B.B.B.B.B.M.n.n.n.B.B.B.B.B.B.B.B.B.N.M.M.B.B.B.N.n.n.",
"B.B.B.B.B.B.B.B.Z.Z.B.Z.Z.B.Z.Z.M.Z.Z.M.Z.B.B.B.B.B.B.Z.Z.M.Z.Z.B.B.B.B.B.B.B.B.B.Z.B.Z.B.Z.Z.B.Z.B.",
"n.n.n.,.n.,.v.n.v.n.v.n.v.n.n.n.n.n.v.n.n.n.n.n.n.v.n.n.n.n.n.v.,.n.,.n.N.M.,.n.v.n.v.n.n.v.n.n.n.v."
};
