/* XPM */
static char *result[] = {
/* columns rows colors chars-per-pixel */
"50 50 176 2 ",
"   c #536264",
".  c #5A6A6C",
"X  c #5F6E70",
"o  c #67787B",
"O  c #697777",
"+  c #717874",
"@  c #A06E49",
"#  c #A4714B",
"$  c #AA764D",
"%  c #AE794F",
"&  c #B07B4F",
"*  c #B27D51",
"=  c #FCDA2E",
"-  c #EDC23A",
";  c #FDCD33",
":  c #F7D531",
">  c #FCD431",
",  c #FBDD34",
"<  c #F9D039",
"1  c #F4D63B",
"2  c #FAE43B",
"3  c #B68256",
"4  c #BD8453",
"5  c #B9865A",
"6  c #BD8A5E",
"7  c #94836C",
"8  c #938C7B",
"9  c #9B8E7A",
"0  c #9F907B",
"q  c #B68D64",
"w  c #BC8C61",
"e  c #B38F69",
"r  c #B39069",
"t  c #BD9368",
"y  c #A48E74",
"u  c #A3927A",
"i  c #AE977A",
"p  c #AF997B",
"a  c #B39776",
"s  c #BE9D77",
"d  c #B0977B",
"f  c #BC9D79",
"g  c #BCA07E",
"h  c #B6A97F",
"j  c #C08754",
"k  c #C58B56",
"l  c #C98E56",
"z  c #C58D59",
"x  c #CA8F59",
"c  c #CB915B",
"v  c #C89958",
"b  c #D3955B",
"n  c #D7985D",
"m  c #DB9B5E",
"M  c #E09E5F",
"N  c #DFB645",
"B  c #D3A856",
"V  c #DDB056",
"C  c #D2BF5E",
"Z  c #D8A749",
"A  c #E5B840",
"S  c #EDBF41",
"D  c #E4B759",
"F  c #E5BF5B",
"G  c #F1B556",
"H  c #F1B25A",
"J  c #C29163",
"K  c #CC9461",
"L  c #CD9A67",
"P  c #C6966A",
"I  c #CC9768",
"U  c #CE9C6D",
"Y  c #D49B63",
"T  c #DA9E63",
"R  c #D09E6C",
"E  c #C49D75",
"W  c #CB9C73",
"Q  c #C59E7A",
"!  c #E29F60",
"~  c #D5A36E",
"^  c #DDA56F",
"/  c #CCA174",
"(  c #C5A37D",
")  c #CAA27E",
"_  c #D4A373",
"`  c #DAA573",
"'  c #DFA871",
"]  c #D4A67E",
"[  c #D4A97F",
"{  c #DBA97E",
"}  c #C1BB75",
"|  c #E5A261",
" . c #EBA663",
".. c #EEA864",
"X. c #E4A96E",
"o. c #ECA968",
"O. c #EFB061",
"+. c #E6AD77",
"@. c #E0AD7D",
"#. c #EDB576",
"$. c #E2CC4E",
"%. c #E6D14B",
"&. c #F8E046",
"*. c #F9EA44",
"=. c #F7EE4C",
"-. c #F8ED4A",
";. c #F7F04E",
":. c #F1E058",
">. c #F5E952",
",. c #D1C564",
"<. c #E7C26C",
"1. c #EBD46B",
"2. c #E4C37C",
"3. c #E2C274",
"4. c #6F8286",
"5. c #738384",
"6. c #77888B",
"7. c #888F8B",
"8. c #8E958F",
"9. c #949387",
"0. c #98978B",
"q. c #9B9483",
"w. c #829294",
"e. c #8F9792",
"r. c #8D9895",
"t. c #859A9E",
"y. c #8E9B9B",
"u. c #929A94",
"i. c #A39782",
"p. c #9CA39E",
"a. c #AFA18C",
"s. c #A8A390",
"d. c #BEAF96",
"f. c #B0AD9D",
"g. c #BCB39E",
"h. c #869CA1",
"j. c #8A9EA2",
"k. c #8EA6AC",
"l. c #8AA0A5",
"z. c #90A7AE",
"x. c #92A9AF",
"c. c #93ABB2",
"v. c #97B0B6",
"b. c #98B0B7",
"n. c #99B1B8",
"m. c #9EB9BF",
"M. c #AAAEA5",
"N. c #A1AAA5",
"B. c #B6AFA0",
"V. c #A5B1AE",
"C. c #AEB3AC",
"Z. c #A8B4B2",
"A. c #CCA582",
"S. c #CFA885",
"D. c #C5AC8E",
"F. c #CFAE8F",
"G. c #D5A780",
"H. c #D1A985",
"J. c #D9AC85",
"K. c #D1AB88",
"L. c #D9AF88",
"P. c #DFB285",
"I. c #DDB38C",
"U. c #D1B28C",
"Y. c #CFAE90",
"T. c #C8B093",
"R. c #D4B392",
"E. c #D8B491",
"W. c #E2B282",
"Q. c #E2B78A",
"!. c #E6BB8E",
"~. c #E9BD8D",
"^. c #E6BD91",
"/. c #E8BE91",
"(. c #E7C195",
"). c #EAC193",
/* pixels */
"Y.Y.Y.Y.Y.Y.F.Y.D.Y.Y.Y.Y.Y.Y.Y.Y.Y.Y.Y.Y.Y.Y.Y.Y.Y.Y.Y.Y.Y.Y.Y.F.F.F.Y.Y.Y.Y.Y.Y.Y.Y.Y.Y.Y.Y.Y.Y.Y.",
"( ) Q ) ) ) Q A.A.A.Q A.Q Q Q Q A.Q A.Q A.Q Q Q Q A.Q A.A.A.Q Q ) ( Q ) ) ) ) ) ) ( ) Q ) Q Q ) ( A.",
"H.H.S.S.S.S.S.S.S.S.S.H.S.S.S.H.H.H.H.H.H.H.S.S.H.S.S.S.A.A.A.A.S.H.S.H.S.A.A.A.A.A.A.) A.) Q A.A.S.",
") S.H.S.A.A.A.A.A.A.S.S.S.H.A.H.A.A.Q A.A.Q A.A.A.A.S.H.K.K.A.A.S.S.H.S.S.S.A.A.A.Q A.) ) A.S.S.S.H.",
"S.H.S.S.A.) ( Q A.S.S.S.A.A.A.A.A.Q Q Q Q E Q Q A.A.S.S.S.S.S.S.H.S.H.S.S.H.S.H.S.S.S.S.S.S.S.H.S.A.",
"S.A.A.S.H.H.H.H.H.S.K.S.H.H.A.S.H.H.H.S.K.S.S.A.H.S.H.S.S.S.K.K.S.A.S.H.H.S.H.S.S.S.S.S.S.H.H.S.S.A.",
"A.A.A.S.H.S.S.H.A.A.K.K.S.A.S.S.A.S.S.A.S.K.S.A.H.H.S.S.S.S.A.A.( A.S.S.S.S.H.S.A.A.A.S.H.H.S.S.S.A.",
"S.S.S.H.S.S.H.A.A.A.A.H.S.A.Q A.A.Q Q A.S.A.A.A.Q A.H.H.S.S.S.K.S.H.S.H.S.H.H.H.S.S.A.S.S.S.A.Q A.H.",
"S.S.S.S.H.S.H.S.H.H.S.S.K.S.S.S.H.S.H.S.S.S.A.A.A.A.A.A.Q A.A.S.K.H.H.S.H.S.H.H.S.S.H.H.S.H.S.H.H.S.",
"S.S.K.S.S.H.S.H.S.S.H.S.S.A.S.S.S.H.S.S.S.S.A.A.A.Q A.A.Q Q A.H.H.K.S.H.S.S.H.) A.A.A.A.A.A.A.A.S.S.",
"E Q S.K.H.H.H.H.S.H.S.S.A.Q Q A.H.S.S.H.S.S.H.H.A.S.G.G.H.H.] _ / [ [ ` ` ` ` ^ ` ' X.' R S.A.S.H.S.",
"S.K.S.S.H.H.H.H.S.S.H.S.H.H.H.G.H.S.H.S.H.S.H.K.K.G._ _ _ _ W W / W ( E s s g a.R .. .T x A.H.S.S.H.",
") ) A.G.A.Q A.Q A.Q A.A.) ) A.) A.) ) ] ) ) ) A.] / u 9 9 9 9 8 9 9 8 8 8 8 7.h.q. .! l k W ) ] A.Q ",
"G.G.G.G.H.J.G.G.G.G.G.H.G.G.G.G.G.G.G.G.G.G.{ ` / u P Y T T T T T ~ T T T Y i.r.e | x k l W G.G.G.G.",
"Q.L.I.L.L.I.I.I.Q.I.L.L.P.J.I.I.I.I.I.I.I.P.+.f 9 K  ...................o.W y.e ! x l k z J.L.I.Q.I.",
"G.G.H.J.J.I.I.I.Q.I.Q.L.G.] G.I.I.I.I.I.W.' p y K  .....................E e.e T b k k c _ J.H.J.J.L.",
"I.I.I.I.I.I.I.I.I.I.I.Q.I.Q.I.I.I.I.L.@.^ p 9 Y  ............... .....W 9.y m b l k k _ L.I.I.I.I.I.",
"I.I.I.I.I.I.I.I.Q.I.I.L.E.E.R.R.E.E.P.X.i.0 c ..................o. ._ e.y Y n k k k R I.I.I.I.I.I.E.",
"I.L.L.I.I.I.I.I.I.L.A.D.C.V.V.V.Z.V.C.M.x.N.f.g.g.d.T.T.R.U.[ / A.W 0.y Y M l k k z ] G.J.J.L.L.I.I.",
"I.L.P.I.Q.I.I.I.I.I.I.g.x.c.c.c.c.c.c.c.c.v.c.c.n.n.c.m.m.n.t.6.4.6.$ Y M x k k x J.I.I.L.L.L.L.I.I.",
"I.I.I.I.I.I.I.I.I.Q.I.T.p.j.z.x.c.c.c.x.c.c.c.c.c.c.c.c.v.k.4..   o P ! x k k x G.I.Q.I.I.Q.I.I.I.I.",
"L.L.L.L.L.I.I.I.I.I.E.I.U.d u 0.u.y.l.l.k.c.x.x.c.x.c.x.x.l.o     o U x k k x ` E.I.L.I.I.I.I.I.I.I.",
"H.H.[ H.H.J.P.I.I.P.).<.<.D V B v r 0 w.r.j.t.x.k.k.k.k.v.6.O     o J k k k R I.Q.I.G.H.L.Q.I.L.G.J.",
"I.I.I.I.I.I.I.I.I.1.;.;.;.;.;.*.=.C i c x z q y q.8.j.l.l.h.4.. o $ k k k I I.P.I.E.E.Q.I.I.I.I.I.I.",
"I.I.I.I.I.L.Q.L.#.>.*.-.;.;.=.*.*.<  . .! m b b l 6 6 r y 9.6.6.* e J k K G.Q.Q.I.W.I.I.P.P.P.I.I.I.",
"{ { J.{ { { { @.:.=.-.;.;.;.=.=., > G M !  . .....| m b x l z z k k 6 J ` J.G.G.J.G.J.J.G.J.G.J.G.J.",
").^.^.).~./.~.#.=.;.;.=.*.=.;.*.> ; S m  . ........... . .B c l k k x J.Q.^.^.!.~.~././.~./././.~.^.",
"!.~.(.).(.).o.O.&.*.-.=.*.*.;.2 = > A n  .................| l l k k ` /././.^.~.~.Q.Q.Q.Q.Q.~./.Q.~.",
").).)./.#.o.....H < ; , 2 *.*.= = = l l  ............. . .x k k k I ^.).).).).)././././.).).).)././.",
").).).#.o.o.......H > = = = = > > - l b .............. .b k k k b W././.)./.).)././.)./.).).).)././.",
"Q.Q.Q.K T | ........$.%.1 = ; : : Z k M ............ .m k k k z G.Q./.).).)./.)./.~./.)././././././.",
"!.!.~.J.* 4 l n ! o.X.h a.,.,.$.A l c  ........... .m k k k z { /././.).).)./././././.)./././.I././.",
"/.).)./.P * * * j x ! | Y E a.a.z k T ............! x l k k ` /.).).).).).).).).).).).).).)./.(.).).",
").).).).).Q.P 3 & & & 4 b M ..| M b  . .........! x k l z K Q./.).).).).)./.).).).).).).).).)./.)./.",
"Q.!.).).).)./.Q._ 5 * * % 3 4 n  . ...........! b k k k K Q././.).).).)././.^.Q.Q.Q.Q.Q.Q.!.^.^./.).",
"/.).).).).).(./././.G.P 3 & & % & 4 T ! ....! b k k k x Q././.J.Q./.).).).)././.).).).)./.)././././.",
"/.!.!.!.^.!.^.!.^.^.^.Q.{ J * % * % $ * m ! Y k k k k ` !.^.^.^.!.!.^.!.!.^.^.Q.^.^.Q.^.^.!.^.!.!.!.",
"] G.G.G.G.] G.G.G.G.] G.[ [ _ J * % & $ @ $ j k k k I G.G.G.G.G.] G.G.G.G.] G.H.J.G.H.G.G.G.G.] G.G.",
"L.L.L.J.L.J.J.L.L.L.L.L.L.J.L.L.G.W w * $ @ & k k c G.J.J.L.L.L.J.L.L.J.J.J.L.J.J.L.L.L.J.L.P.J.J.J.",
"L.J.L.I.Q.Q.I.I.I.I.I.L.] A.G.I.I.I.I.J.P * @ 4 k J.I.I.I.I.I.I.I.I.Q.I.Q.I.Q.I.I.I.I.I.I.Q.L.Q.I.I.",
"L.L.H.L.J.I.I.I.I.I.I.I.I.I.I.I.I.I.L.J.J.G.W w W G.J.K.L.L.I.I.I.L.J.H.H.J.L.L.I.I.I.H.J.H.J.H.J.I.",
"I.I.I.I.I.E.I.I.I.I.I.I.E.I.I.I.E.Q.I.I.L.L.L.H.K.J.J.L.J.L.I.I.Q.I.I.L.J.I.L.Q.I.I.I.I.I.I.Q.Q.I.I.",
"I.I.I.I.I.I.I.I.I.I.I.I.Q.E.I.I.I.I.I.I.I.I.E.L.L.I.G.G.G.L.I.I.I.I.I.I.I.I.I.E.L.L.I.E.I.Q.I.I.I.I.",
"I.L.L.I.Q.I.I.I.I.I.H.J.I.I.I.Q.I.I.L.L.L.L.Q.I.G.J.J.J.K.J.I.I.I.I.I.I.Q.I.I.I.I.J.L.L.L.H.J.L.I.I.",
"I.I.E.I.I.I.I.I.Q.I.I.I.I.I.I.I.I.I.J.J.J.J.I.E.I.L.J.Q G.G.I.I.I.H.H.J.I.I.I.I.Q.E.I.I.E.I.I.Q.I.I.",
"I.I.I.I.I.I.I.I.E.I.I.I.I.L.J.L.J.J.K.J.J.I.I.I.I.I.I.I.I.I.I.I.I.I.I.I.I.I.I.Q.Q.I.I.I.I.I.I.I.I.P.",
"L.J.I.L.I.I.I.I.Q.I.I.I.I.L.L.L.J.J.J.J.J.J.I.I.I.I.I.I.I.J.J.I.I.I.Q.I.I.I.I.Q.I.L.L.L.I.I.I.I.J.I.",
"L.L.L.J.L.L.I.I.I.I.H.G.J.I.I.I.I.I.E.I.I.I.I.I.I.I.I.I.J.J.J.P.Q.I.I.I.I.I.I.I.I.I.J.L.L.I.I.L.J.J.",
"I.I.I.I.I.I.I.I.Q.Q.I.Q.I.I.P.I.I.I.P.I.I.I.I.I.Q.Q.Q.Q.Q.I.P.I.I.I.I.I.I.I.I.I.P.I.I.I.I.I.Q.I.I.I.",
"J.G.J.J.J.{ J.J.G.{ J.G.G.J.J.J.J.J.J.J.J.J.J.J.G.G.J.G.J.J.J.G.J.J.G.J.J.J.J.J.J.J.J.J.G.J.W.G.G.J."
};
